<?xml version="1.0" standalone="no"?>
<!DOCTYPE svg PUBLIC "-//W3C//DTD SVG 1.1//EN" "http://www.w3.org/Graphics/SVG/1.1/DTD/svg11.dtd" >
<svg xmlns="http://www.w3.org/2000/svg">
  <metadata>Created by iconfont</metadata>
  <defs>
  <font id="iconfont" horiz-adv-x="1024">
    <font-face
      font-family="iconfont"
      font-weight="400"
      font-stretch="normal"
      units-per-em="1024"
      ascent="896"
      descent="-128"
    />
      <missing-glyph />
      
      <glyph glyph-name="kehucrm" unicode="&#59046;" d="M928.697158 140.511418 928.697158 213.234036 1173.060794 213.234036 1173.060794 140.511418 928.697158 140.511418ZM855.388067 384 1173.060794 384 1173.060794 310.979491 855.388067 310.979491 855.388067 384ZM928.697158 554.765964 1173.060794 554.765964 1173.060794 481.745455 928.697158 481.745455 928.697158 554.765964ZM1011.445667-15.704436C1021.527412-36.715055 1026.693958-71.121455 1025.967849-109.549382 1025.967849-114.129455 1026.386758-118.560582 1024.171194-122.274909 1022.030103-125.840291 1018.520576-127.990691 1014.945885-127.990691L11.202467-127.990691C7.478831-127.990691 4.034467-125.840291 1.828212-122.274909-0.387351-118.560582 0.031558-113.9712 0.031558-109.549382-0.257024-75.273309 2.898758-45.409745 20.930467-6.981818 81.774685 122.293527 471.062249 135.586909 347.949521 317.011782 273.290612 409.153164 249.180067 475.145309 249.180067 573.579636 249.180067 751.429818 368.057158 896 513.781667 896 659.655121 896 778.243631 751.429818 778.262249 573.579636 778.262249 475.145309 730.376285 383.292509 672.399267 315.298909 495.331049 109.446982 946.821958 119.575273 1011.445667-15.704436ZM513.781667 822.849164C410.078394 822.849164 322.479849 708.729018 322.479849 573.5424 322.479849 502.6816 407.425303 359.693964 408.644794 357.981091 442.343703 308.270545 452.527849 259.286109 438.564212 212.563782 412.433594 125.002473 326.678249 83.428073 231.064576 43.287273 178.682321 21.373673 99.666758-11.785309 87.276358-38.130036 84.483631-43.985455 82.268067-49.552291 80.471412-54.839855L947.82734-54.839855C946.90574-51.125527 945.974831-48.630691 945.397667-47.271564 933.016576-21.410909 842.681158 10.379636 788.716358 29.370182 683.784285 66.299345 588.524358 104.438691 563.752867 196.784873 549.584431 249.6512 567.476503 305.580218 616.786758 362.868364 683.998394 441.725673 704.962467 512.7168 704.962467 573.579636 704.962467 711.000436 619.207121 822.849164 513.781667 822.849164Z"  horiz-adv-x="1174" />
      
      <glyph glyph-name="jibenxinxi" unicode="&#58935;" d="M768 725.333333h-42.666667v-42.666666c0-21.333333-21.333333-42.666667-42.666666-42.666667h-341.333334c-21.333333 0-42.666667 21.333333-42.666666 42.666667V725.333333h-42.666667C209.066667 725.333333 170.666667 686.933333 170.666667 640v-597.333333c0-46.933333 38.4-85.333333 85.333333-85.333334h512c46.933333 0 85.333333 38.4 85.333333 85.333334V640c0 46.933333-38.4 85.333333-85.333333 85.333333z m42.666667-682.666666c0-25.6-17.066667-42.666667-42.666667-42.666667H256c-25.6 0-42.666667 17.066667-42.666667 42.666667V640c0 25.6 17.066667 42.666667 42.666667 42.666667 0-46.933333 38.4-85.333333 85.333333-85.333334h341.333334c46.933333 0 85.333333 38.4 85.333333 85.333334 25.6 0 42.666667-17.066667 42.666667-42.666667v-597.333333zM341.333333 699.733333v34.133334c0 8.533333 8.533333 17.066667 17.066667 17.066666h76.8c8.533333 0 17.066667 8.533333 17.066667 17.066667v25.6c0 8.533333 8.533333 17.066667 17.066666 17.066667h89.6c8.533333 0 17.066667-8.533333 17.066667-17.066667v-29.866667c0-8.533333 8.533333-17.066667 17.066667-17.066666h76.8c8.533333 0 17.066667-8.533333 17.066666-17.066667v-34.133333c-4.266667-4.266667-12.8-12.8-21.333333-12.8H354.133333c-8.533333 0-12.8 8.533333-12.8 17.066666z m405.333334-251.733333c0-12.8-8.533333-21.333333-21.333334-21.333333H298.666667c-12.8 0-21.333333 8.533333-21.333334 21.333333s8.533333 21.333333 21.333334 21.333333h426.666666c12.8 0 21.333333-8.533333 21.333334-21.333333z m0-128c0-12.8-8.533333-21.333333-21.333334-21.333333H298.666667c-12.8 0-21.333333 8.533333-21.333334 21.333333s8.533333 21.333333 21.333334 21.333333h426.666666c12.8 0 21.333333-8.533333 21.333334-21.333333z m0-128c0-12.8-8.533333-21.333333-21.333334-21.333333H298.666667c-12.8 0-21.333333 8.533333-21.333334 21.333333s8.533333 21.333333 21.333334 21.333333h426.666666c12.8 0 21.333333-8.533333 21.333334-21.333333z"  horiz-adv-x="1024" />
      
      <glyph glyph-name="zihuanjie2x" unicode="&#58948;" d="M469.333333 768v-170.666667a42.666667 42.666667 0 0 0-42.666666-42.666666H341.333333v-85.333334h213.333334V512a42.666667 42.666667 0 0 0 42.666666 42.666667h256a42.666667 42.666667 0 0 0 42.666667-42.666667v-170.666667a42.666667 42.666667 0 0 0-42.666667-42.666666h-256a42.666667 42.666667 0 0 0-42.666666 42.666666v42.666667H341.333333v-256h213.333334v42.666667a42.666667 42.666667 0 0 0 42.666666 42.666666h256a42.666667 42.666667 0 0 0 42.666667-42.666666v-170.666667a42.666667 42.666667 0 0 0-42.666667-42.666667h-256a42.666667 42.666667 0 0 0-42.666666 42.666667v42.666667H298.666667a42.666667 42.666667 0 0 0-42.666667 42.666666V554.666667H170.666667a42.666667 42.666667 0 0 0-42.666667 42.666666V768a42.666667 42.666667 0 0 0 42.666667 42.666667h256a42.666667 42.666667 0 0 0 42.666666-42.666667z m170.666667-640v-85.333333h170.666667v85.333333h-170.666667z m0 341.333333v-85.333333h170.666667v85.333333h-170.666667zM213.333333 725.333333v-85.333333h170.666667V725.333333H213.333333z"  horiz-adv-x="1024" />
      
      <glyph glyph-name="tianjia1" unicode="&#58967;" d="M940.809299 562.418552c-23.391756 57.684794-57.752332 109.431342-102.126982 153.805992-44.37465 44.37465-96.124268 78.736249-153.808038 102.128005C629.167536 840.943057 570.307987 852.396923 509.933945 852.396923c-60.375066 0-119.232568-11.453866-174.939311-34.044374-57.68377-23.391756-109.431342-57.753355-153.805992-102.128005-44.37465-44.37465-78.734202-96.122221-102.125959-153.805992C56.473199 506.711809 45.019333 447.854307 45.019333 387.480264c0-60.375066 11.453866-119.231545 34.044374-174.939311 23.391756-57.68377 57.751309-109.431342 102.125959-153.805992 44.37465-44.37465 96.122221-78.734202 153.805992-102.126982 55.706743-22.589484 114.565269-34.044374 174.939311-34.044374 60.374042 0 119.232568 11.453866 174.939311 34.044374 57.684794 23.391756 109.433388 57.752332 153.810085 102.126982 44.373627 44.373627 78.733179 96.122221 102.125959 153.805992 22.589484 55.706743 34.044374 114.564245 34.044374 174.939311C974.85265 447.854307 963.398784 506.711809 940.809299 562.418552zM905.988236 226.661555c-21.491477-52.999075-53.075823-100.559277-93.874017-141.357472-40.800241-40.799218-88.361467-72.383564-141.360542-93.875041-51.201126-20.761859-105.308441-31.289634-160.819732-31.289634-55.512315 0-109.61963 10.527774-160.818709 31.289634-52.999075 21.491477-100.558254 53.075823-141.357472 93.874017-40.799218 40.799218-72.382541 88.35942-93.875041 141.358495-20.762883 51.200102-31.289634 105.307418-31.289634 160.818709 0 55.511291 10.527774 109.618607 31.289634 160.818709 21.491477 52.999075 53.075823 100.558254 93.875041 141.357472 40.799218 40.800241 88.358397 72.384587 141.357472 93.877087 51.200102 20.762883 105.307418 31.290657 160.818709 31.290657 55.511291 0 109.618607-10.527774 160.819732-31.290657 52.999075-21.491477 100.5603-53.076846 141.359518-93.877087 40.799218-40.799218 72.383564-88.358397 93.875041-141.357472 20.761859-51.200102 31.289634-105.307418 31.289634-160.818709C937.278893 331.968973 926.750095 277.861658 905.988236 226.661555zM810.369481 406.947641c-0.014326 0-0.029676 0-0.042979 0l-281.56577-0.635473 0.590448 282.148032c0.021489 10.376325-8.372691 18.804275-18.747993 18.826787-0.014326 0-0.025583 0-0.039909 0-10.356882 0-18.764366-8.385994-18.785855-18.747993l-0.591471-282.311761-281.725406-0.636496c-10.376325-0.023536-18.767436-8.453533-18.744923-18.829857 0.023536-10.361999 8.429996-18.744923 18.785855-18.744923 0.014326 0 0.029676 0 0.042979 0l281.561677 0.635473-0.590448-282.152125c-0.021489-10.375302 8.372691-18.804275 18.747993-18.825764 0.014326 0 0.025583 0 0.039909 0 10.355859 0 18.764366 8.385994 18.785855 18.747993l0.590448 282.314831 281.728476 0.636496c10.376325 0.023536 18.768459 8.453533 18.744923 18.829857C829.131801 398.564717 820.726364 406.947641 810.369481 406.947641z"  horiz-adv-x="1024" />
      
      <glyph glyph-name="shanchu1" unicode="&#58881;" d="M687.603949 239.005698 541.10027 385.542122 687.603949 532.056034c8.829086 8.840342 8.829086 23.122627 0 31.961946-8.850575 8.840342-23.13286 8.840342-31.962969 0L509.138324 417.504068 362.623389 564.019003c-8.840342 8.818853-23.122627 8.818853-31.962969 0-8.840342-8.840342-8.840342-23.144116 0-31.984459l146.493445-146.514935L330.638931 239.005698c-8.819876-8.830109-8.819876-23.133883 0-31.962969 8.840342-8.829086 23.144116-8.829086 31.984459 0l146.514935 146.514935 146.502655-146.514935c8.830109-8.829086 23.112394-8.829086 31.962969 0C696.433034 215.870792 696.45657 230.175589 687.603949 239.005698zM938.362063 385.542122c0 237.061161-192.174857 429.234995-429.247274 429.234995-237.062184 0-429.246251-192.173834-429.246251-429.234995 0-237.083673 192.185091-429.257507 429.246251-429.257507 97.345072 0 186.435133 33.110095 258.440074 87.677898 2.958378 3.354398 4.900613 7.636934 4.900613 12.449543 0 10.506285-8.521071 19.026332-19.027355 19.026332-5.431709 0-10.287297-2.162246-13.752212-5.826705l-0.2415 0c-64.456011-47.414893-143.745868-75.800383-229.876528-75.800383-214.679407 0-388.730489 174.073594-388.730489 388.719232 0 214.688617 174.051081 388.718209 388.730489 388.718209 214.688617 0 388.697743-174.029592 388.697743-388.718209 0-65.548902-15.386432-127.277802-44.081984-181.490517l0-0.309038c-0.508583-1.811252-1.104147-3.576455-1.104147-5.519714 0-10.507308 8.520047-19.028379 19.028379-19.028379 8.18952 0 15.054881 5.254677 17.703197 12.494569l0-0.132006C920.349827 247.61375 938.362063 314.463274 938.362063 385.542122z"  horiz-adv-x="1024" />
      
      <glyph glyph-name="tianjia" unicode="&#58933;" d="M512.625752 834.4072c-247.332085 0-447.833585-200.502523-447.833585-447.833585 0-247.331062 200.502523-447.832562 447.833585-447.832562 247.331062 0 447.832562 200.5015 447.832562 447.832562S759.956813 834.4072 512.625752 834.4072zM568.205605 109.219773l-102.777805-0.311085-0.684592 226.111784-226.111784-0.684592-0.312108 102.777805 226.112808 0.684592-0.684592 226.111784 102.777805 0.311085 0.684592-226.111784 226.113831 0.684592 0.311085-102.778828-226.111784-0.683569L568.205605 109.219773z"  horiz-adv-x="1024" />
      
      <glyph glyph-name="bianji" unicode="&#58906;" d="M71.111111 796.444444v-853.333333h853.333333v398.222222c0 14.222222 11.377778 28.444444 28.444445 28.444445 0 0 28.444444-2.844444 28.444444-28.444445v-398.222222c0-42.666667-19.911111-56.888889-56.888889-56.888889h-853.333333c-28.444444 0-56.888889 25.6-56.888889 56.888889v853.333333c0 31.288889 11.377778 54.044444 56.888889 56.888889h398.222222c34.133333 0 28.444444-28.444444 28.444445-28.444444 0-5.688889 2.844444-28.444444-28.444445-28.444445h-398.222222z m950.044445 45.511112v-5.688889L477.866667 273.066667c-2.844444-2.844444-5.688889-2.844444-5.688889 0l-39.822222 34.133333c-2.844444 2.844444-2.844444 5.688889 0 8.533333L981.333333 881.777778h2.844445l36.977778-39.822222z"  horiz-adv-x="1024" />
      
      <glyph glyph-name="no-data-3" unicode="&#58922;" d="M698.843 470.428c0-13.699-11.114-24.826-24.826-24.826-13.73 0-24.844 11.12-24.844 24.826 0 13.73 11.114 24.844 24.844 24.844 13.712-0 24.826-11.114 24.826-24.844zM351.157 633.756h-147.312c-1.861 0-7.524 0-9.154 4.009-1.586 3.89 2.173 7.574 3.409 8.785l156.066 151.383c4.19 4.096 8.779 4.652 11.62 1.792 1.68-1.692 2.516-4.327 2.479-7.824l-1.386-143.86c-0.069-8.279-6.681-14.286-15.722-14.286zM200.904 640.268c0.549-0.137 1.467-0.268 2.941-0.268h147.312c4.533 0 9.435 2.535 9.484 8.105l1.386 143.86c0.019 2.285-0.506 3.228-0.687 3.378 0.031-0.037-0.955-0.062-2.816-1.886l-156.066-151.383c-0.818-0.799-1.286-1.399-1.555-1.804zM805.832-34.448h-589.762c-12.55 0-22.765 10.215-22.765 22.765v647.98h6.244v-647.973c0-9.11 7.412-16.521 16.521-16.521h589.762c9.11 0 16.521 7.418 16.521 16.521v791.521c0 9.11-7.412 16.521-16.521 16.521h-446.208v6.244h446.202c12.55 0 22.765-10.215 22.765-22.765v-791.521c0.006-12.556-10.209-22.772-22.759-22.772zM265.172 265.366h491.901l-112.865 152.976-100.34-118.147-134.893 200.354zM901.932-128h-9.054v6.244h9.054c5.332 0 9.678 6.244 9.678 12.488h6.244c-0-12.488-7.143-18.732-15.922-18.732zM861.659-128h-31.22v6.244h31.22v-6.244zM799.22-128h-31.22v6.244h31.22v-6.244zM736.78-128h-31.22v6.244h31.22v-6.244zM674.341-128h-31.22v6.244h31.22v-6.244zM611.902-128h-31.22v6.244h31.22v-6.244zM549.463-128h-31.22v6.244h31.22v-6.244zM487.024-128h-31.22v6.244h31.22v-6.244zM424.585-128h-31.22v6.244h31.22v-6.244zM362.146-128h-31.22v6.244h31.22v-6.244zM299.707-128h-31.22v6.244h31.22v-6.244zM237.268-128h-31.22v6.244h31.22v-6.244zM174.829-128h-31.22v6.244h31.22v-6.244zM112.609-114.725c-0.144 0.862-0.219 1.742-0.219 2.654v27.779h6.244v-27.779c0-0.556 0.044-1.099 0.131-1.63l-6.156-1.024zM917.854-90.537h-6.244v31.22h6.244v-31.22zM118.634-53.073h-6.244v31.22h6.244v-31.22zM917.854-28.098h-6.244v31.22h6.244v-31.22zM118.634 9.366h-6.244v31.22h6.244v-31.22zM917.854 34.341h-6.244v31.22h6.244v-31.22zM118.634 71.805h-6.244v31.22h6.244v-31.22zM917.854 96.78h-6.244v31.22h6.244v-31.22zM118.634 134.244h-6.244v31.22h6.244v-31.22zM917.854 159.22h-6.244v31.22h6.244v-31.22zM118.634 196.683h-6.244v31.22h6.244v-31.22zM917.854 221.659h-6.244v31.22h6.244v-31.22zM118.634 259.122h-6.244v31.22h6.244v-31.22zM917.854 284.098h-6.244v31.22h6.244v-31.22zM118.634 321.561h-6.244v31.22h6.244v-31.22zM917.854 346.537h-6.244v31.22h6.244v-31.22zM118.634 384h-6.244v31.22h6.244v-31.22zM917.854 408.976h-6.244v31.22h6.244v-31.22zM118.634 446.439h-6.244v31.22h6.244v-31.22zM917.854 471.415h-6.244v31.22h6.244v-31.22zM118.634 508.878h-6.244v31.22h6.244v-31.22zM917.854 533.854h-6.244v31.22h6.244v-31.22zM118.634 571.317h-6.244v31.22h6.244v-31.22zM917.854 596.293h-6.244v31.22h6.244v-31.22zM118.634 633.756h-6.244v31.22h6.244v-31.22zM917.854 658.732h-6.244v31.22h6.244v-31.22zM118.634 696.195h-6.244v31.22h6.244v-31.22zM917.854 721.171h-6.244v31.22h6.244v-31.22zM118.634 758.634h-6.244v31.22h6.244v-31.22zM917.854 783.61h-6.244v31.22h6.244v-31.22zM118.634 821.073h-6.244v31.22h6.244v-31.22zM917.854 846.049h-6.244l-0 31.22h6.244l0-31.22zM119.284 883.568l-5.826 2.254c2.36 6.088 8.329 10.178 14.854 10.178h15.298v-6.244h-15.298c-3.965 0-7.599-2.485-9.029-6.188zM892.878 889.756h-31.22v6.244h31.22v-6.244zM830.439 889.756h-31.22v6.244h31.22v-6.244zM768 889.756h-31.22v6.244h31.22v-6.244zM705.561 889.756h-31.22l-0 6.244h31.22l0-6.244zM643.122 889.756h-31.22v6.244h31.22v-6.244zM580.683 889.756h-31.22l0 6.244h31.22l-0-6.244zM518.244 889.756h-31.22l-0 6.244h31.22l0-6.244zM455.805 889.756h-31.22l0 6.244h31.22l-0-6.244zM393.366 889.756h-31.22l-0 6.244h31.22l0-6.244zM330.927 889.756h-31.22v6.244h31.22v-6.244zM268.488 889.756h-31.22l0 6.244h31.22v-6.244zM206.049 889.756h-31.22l0 6.244h31.22l-0-6.244z"  horiz-adv-x="1024" />
      
      <glyph glyph-name="kongshuju" unicode="&#59053;" d="M147.34-14.77l-1.05 0.02c-6.05 0.2-37.49 2.21-58.44 21.85-21.48 20.14-24.04 49.1-24.34 54.71-0.03 0.53-0.04 1.06-0.04 1.58V221.14c-0.32 6.49-0.74 28.45 6.62 52.82 7.05 23.38 15.75 38.72 18.25 42.86l79.19 140.12c0.4 0.69 0.82 1.38 1.27 2.04 2.47 3.67 15.74 22.53 33.94 33.84 19.15 11.93 42.33 12.85 48.99 12.85h500.24c0.64 0 1.28-0.01 1.94-0.05 4.97-0.32 30.79-2.5 50.78-13.93 19.08-10.93 34.45-30.03 37.32-33.73 0.59-0.76 1.14-1.55 1.65-2.36l94.05-149.04c0.41-0.66 0.81-1.34 1.18-2.04 1.8-3.46 11.1-21.75 15.81-39.53 4.65-17.6 5.77-37.05 5.94-40.76l0.02-1.27v-157.78c0.11-8.34-1.43-36.96-25.18-58.24-22.49-20.13-52.77-21.69-61.51-21.69l-726.63-0.02zM139.28 284.86c-1.73-3.08-7.12-13.26-11.64-28.26-4.78-15.86-4.21-30.68-4.13-32.31 0.04-0.71 0.07-1.43 0.08-2.13v-157.72l0.05-0.44c0.37-2.84 2.11-9.71 5.09-12.81l0.4-0.43 0.47-0.34c4.18-3.08 14.53-4.85 18.15-5.07l726.28-0.01c6.02 0.08 16.56 2.08 21.33 6.35 4.27 3.83 5.23 10.4 5.23 11.45l-0.05 1.82V222.01c-0.33 6.12-1.52 18.34-3.97 27.58-2.78 10.56-9.01 23.23-10.23 25.65l-0.34 0.59-92.3 146.28-0.29 0.34c-3.5 4.22-11.89 13.22-18.58 17.06-5.81 3.32-17.62 5.45-23.71 6.02l-0.63 0.03H251.83c-4.67-0.04-13.33-1.27-17.34-3.78-5.65-3.52-12.32-11.55-15.07-15.3l-0.24-0.33-78.7-139.22-0.85-1.43 0.01 0.03c-0.02-0.06-0.36-0.67-0.36-0.67zM509.2 549.75c-16.6 0.02-30.04 13.46-30.06 30.06v172.9c0.01 16.6 13.46 30.03 30.05 30.06 16.59-0.02 30.04-13.46 30.07-30.06v-172.9c-0.02-16.6-13.47-30.04-30.06-30.06zM710.72 550.89c-16.59 0.02-30.04 13.47-30.06 30.06 0 6.9 2.38 13.58 6.71 18.94l68.71 84.74a30.005 30.005 0 0 0 23.38 11.13c6.94 0 13.48-2.32 18.89-6.71 6.22-5 10.17-12.29 10.98-20.23 0.86-7.93-1.5-15.87-6.54-22.05l-68.71-84.74a29.84 29.84 0 0 0-23.32-11.13l-0.04-0.01zM311.05 553.19a29.9 29.9 0 0 0-23.49 11.32l-67.54 84.74c-10.33 12.98-8.2 31.88 4.77 42.24a29.702 29.702 0 0 0 18.72 6.55c9.21 0 17.79-4.13 23.52-11.32l67.55-84.74c10.33-12.98 8.21-31.88-4.75-42.23a30.156 30.156 0 0 0-18.73-6.56h-0.05zM510.34 108.88c-66.96 0-125.15 44.9-141.47 109.16l-1.32 5.19-266.93 0.16c-16.6 0.03-30.04 13.48-30.06 30.08 0.02 16.59 13.47 30.02 30.06 30.04l293.94-0.19c16.59-0.04 30.01-13.48 30.04-30.07 0-47.25 37.66-84.25 85.75-84.25 47.91 0 85.45 37 85.45 84.25 0.03 16.58 13.47 30.03 30.06 30.07l291.21 0.19c16.58 0 30.06-13.46 30.07-30.03 0.01-16.58-13.46-30.07-30.03-30.09l-264.24-0.16-1.32-5.18c-16.32-64.27-74.37-109.17-141.21-109.17z m0 0"  horiz-adv-x="1024" />
      
      <glyph glyph-name="sandengjiang" unicode="&#59560;" d="M337.2 896H162.3l249.8-449.6h174.8L337.2 896zM686.8 896L437.1 446.4h174.8L861.7 896H686.8zM586.9 446.4l-1.7 3.3-1.7-3.3h3.4zM482.7 635.3l-86-160.4 27.9-54.4 87 160.6-28.9 54.2zM512 171.7m-299.7 0a299.7 299.7 0 1 1 599.4 0 299.7 299.7 0 1 1-599.4 0ZM512-78c-137.9 0-249.8 111.8-249.8 249.8S374.1 421.5 512 421.5s249.8-111.8 249.8-249.8C761.6 33.8 649.9-77.9 512-78zM337.2 96.8v-50h349.7v50h-50V246.6h50v50H337.2v-50h50v-149.9h-50zM537 246.6h50v-149.9h-50zM437.1 246.6h50v-149.9h-50z"  horiz-adv-x="1024" />
      
      <glyph glyph-name="yidengjiang" unicode="&#59566;" d="M337.175 896H162.375l249.8-449.6h174.8L337.175 896zM686.875 896L437.075 446.4H611.875L861.675 896H686.875zM586.975 446.4l-1.7 3.3-1.7-3.3h3.4zM482.775 635.3l-86-160.4 27.9-54.4 87 160.6-28.9 54.2zM511.975 171.7m-299.7 0a299.7 299.7 0 1 1 599.4 0 299.7 299.7 0 1 1-599.4 0ZM511.975-78c-137.9 0-249.8 111.8-249.8 249.8s111.8 249.8 249.8 249.8 249.8-111.8 249.8-249.8c-0.2-138-111.9-249.7-249.8-249.8z m-74.9 174.8v-50h149.9v50h-50V246.6h50v50H437.075v-50h50v-149.9h-50z"  horiz-adv-x="1024" />
      
      <glyph glyph-name="erdengjiang" unicode="&#59567;" d="M337.2 896H162.3l249.8-449.6h174.8L337.2 896zM686.8 896L437.1 446.4h174.8L861.7 896H686.8zM586.9 446.4l-1.7 3.3-1.7-3.3h3.4zM482.7 635.3l-86-160.4 27.9-54.4 87 160.6-28.9 54.2zM512 171.7m-299.7 0a299.7 299.7 0 1 1 599.4 0 299.7 299.7 0 1 1-599.4 0ZM487 246.6h50v-149.9h-50zM512-78c-137.9 0-249.8 111.8-249.8 249.8S374.1 421.5 512 421.5s249.8-111.8 249.8-249.8C761.6 33.8 649.9-77.9 512-78zM387.1 96.8v-50h249.8v50h-50V246.6h50v50H387.1v-50h50v-149.9h-50z"  horiz-adv-x="1024" />
      
      <glyph glyph-name="xiangzuo2" unicode="&#60181;" d="M401.066667 384l302.933333-302.933333-59.733333-59.733334L341.333333 324.266667 281.6 384 341.333333 443.733333l302.933334 302.933334 59.733333-59.733334L401.066667 384z"  horiz-adv-x="1024" />
      
      <glyph glyph-name="xiangzuo1" unicode="&#58909;" d="M451.733916 1.0501679999999851L66.147024 386.400676 448.089923 768.343575 493.31494 723.118558 188.627567 418.432207 960.70186 418.43323 960.70186 354.476593 188.753433 354.476593 496.956887 46.275184999999965Z"  horiz-adv-x="1024" />
      
      <glyph glyph-name="icon-test" unicode="&#59017;" d="M960-48.8h-896v23c0 138.8 263.2 251.6 334.9 266 2.6 5.5 5.1 18.1 6 30.4-16.5 18.5-56.5 68.4-71.5 133.2-15.3 7.2-28.1 22.7-36.1 44.5-11.3 30.6-12.1 72.9 9.7 100.3 0 0.5-0.1 0.9-0.1 1.4-4.1 38.4-15.1 140.3 45 207.1 35.7 39.7 89.5 59.8 160.1 59.8s124.5-20.1 160.1-59.9c60-66.9 49-168.8 44.9-207.1 0-0.4-0.1-0.9-0.1-1.3 21.9-27.3 21-69.6 9.8-100.2-8-21.8-20.9-37.3-36.2-44.5-15-64.8-55-114.7-71.5-133.2 0.9-12.5 3.4-25 6-30.4 71.8-14.5 335-127.3 335-266.1v-23zM113.8-2.8h796.5c-12.3 38-53.8 80.2-119.9 121.2-69.2 43-147.1 72.4-176.8 77.2-36.3 5.8-40.6 60.3-40.8 83.5l-0.1 9.6 6.9 6.8c0.6 0.6 56.6 57.1 68.6 130.5l3.2 19.3h19.5c2.5 0.5 10.5 8.8 15.1 26.2 5.5 21.3 2.3 42.8-7.6 51.3l-8.6 7.3 0.5 11.3c0.1 3 0.6 7.6 1.2 13.4 3.9 35.9 12.9 119.9-33.4 171.5-26.6 29.6-69 44.6-126 44.6s-99.4-15-125.9-44.6c-46.3-51.5-37.3-135.6-33.5-171.5 0.6-5.8 1.1-10.4 1.2-13.5l0.5-11.3-8.6-7.3c-9.9-8.4-13.1-30-7.6-51.2 4.5-17.4 12.6-25.7 15.1-26.2h19.5l3.1-19.3c12-73.3 68-129.9 68.6-130.5l6.8-6.8v-9.7c-0.2-23.2-4.6-77.7-40.8-83.5-29.6-4.7-107.5-34.2-176.7-77.2-66.2-41-107.7-83.2-120-121.1z"  horiz-adv-x="1024" />
      
      <glyph glyph-name="touxiang" unicode="&#59000;" d="M512 864a480 480 0 1 1 0-960 480 480 0 0 1 0 960z m-3.072-168.192a144.64 144.64 0 1 0 0-289.28 144.64 144.64 0 0 0 0 289.28zM256 121.856c-1.472 148.224 70.976 240.256 161.792 276.416l93.248-155.584 98.24 152c87.616-38.4 157.248-129.344 158.656-272.96-161.088-63.872-330.88-68.48-511.936 0.128z"  horiz-adv-x="1024" />
      
      <glyph glyph-name="fl-dianhua" unicode="&#58941;" d="M177.724 211.52300000000002l516.632 516.614C500.264 683.165 233.19 426.42 177.724 211.52300000000002zM706.073 727.217l-528.35-528.334c-9.536-30.469-14.993-59.891-14.993-87.387 0-66.133 69.482-149.91 149.91-149.873 27.575 0 149.966 171.955 149.966 211.604 0 40.703-35.306 70.572-35.306 105.838 0 35.25 155.367 193.926 193.999 193.945 38.521 0 57.236-35.211 97-35.211 28.571-0.019 202.728 105.784 202.728 149.834-0.021 44.07-78.285 149.854-149.91 149.854-20.089-0.001-41.964-3.63-65.044-10.27z"  horiz-adv-x="1024" />
      
      <glyph glyph-name="Androidgengduo" unicode="&#60160;" d="M469.333333 725.333333h128v-128h-128V725.333333z m0-298.666666h128v-128h-128v128z m0-298.666667h128v-128h-128v128z"  horiz-adv-x="1024" />
      
      <glyph glyph-name="xiangyou" unicode="&#58931;" d="M512-64C265.6-64 64 137.6 64 384S265.6 832 512 832s448-201.6 448-448-201.6-448-448-448z m0 852c-222.2 0-404-181.8-404-404s181.8-404 404-404 404 181.8 404 404-181.8 404-404 404zM652.7 399.6L457.6 594.7c-8.6 8.6-22.5 8.6-31.1 0s-8.6-22.5 0-31.1L606 384 426.4 204.4c-8.6-8.6-8.6-22.5 0-31.1 8.6-8.6 22.5-8.6 31.1 0l195.2 195.2c8.6 8.5 8.6 22.5 0 31.1z"  horiz-adv-x="1024" />
      
      <glyph glyph-name="xiangzuo" unicode="&#58932;" d="M512 832C265.6 832 64 630.4 64 384s201.6-448 448-448 448 201.6 448 448S758.4 832 512 832z m0-852c-222.2 0-404 181.8-404 404s181.8 404 404 404 404-181.8 404-404-181.8-404-404-404zM418 384l179.6 179.6c8.6 8.6 8.6 22.5 0 31.1s-22.5 8.6-31.1 0L371.3 399.6c-8.6-8.6-8.6-22.5 0-31.1l195.2-195.2c8.6-8.6 22.5-8.6 31.1 0 8.6 8.6 8.6 22.5 0 31.1L418 384z"  horiz-adv-x="1024" />
      
      <glyph glyph-name="dongtaiwenben" unicode="&#60567;" d="M651.68 317.792h-304.576L305.28 226.08c-6.272-13.216-9.408-23.616-9.408-31.232 0-14.528 3.712-24.608 25.856-30.208v-24.512H144.064v24.512c13.248 2.624 35.008 7.264 41.92 13.856 6.976 6.624 14.912 19.52 23.808 38.688L433.28 737.152c7.936 16.512 11.904 4.352 11.904 14.272 0 15.2-2.72 16.576-21.888 23.2V800h177.632v-25.376c-19.488-5.632-24.576-5.856-24.576-19.744 0-9.6 3.136 4.896 9.408-7.328l232.384-521.472c10.88-22.144 20.48-37.248 28.768-45.344 8.256-8.096 19.328-13.44 33.184-16.096v-24.512h-203.008v24.512c21.792 3.616 37.664 13.856 37.664 30.72 0 6.944-3.296 17.184-9.92 30.72l-53.12 91.712z m-25.408 76.16l-116.288 286.304-112.128-286.336h228.416zM128.64 61.312c135.456 61.184 267.008 63.04 393.408 5.376l11.84-5.568c121.248-59.008 241.504-59.008 362.304 0a16 16 0 1 0 14.08-28.768c-125.76-61.408-252.384-63.264-378.56-5.6l-11.84 5.6c-121.28 59.04-246.88 59.04-378.048-0.192a16 16 0 1 0-13.184 29.152z"  horiz-adv-x="1024" />
      
      <glyph glyph-name="shanchu" unicode="&#58956;" d="M162.181567 568.32945h97.332564v-695.916023H162.181567zM374.919368 501.590495h97.332564v-463.333718H374.919368zM59.53351 648.534318V745.866882h904.93298V648.534318zM162.181567-128V-30.667435999999952h735.605029v-97.332564zM587.657169 501.590495h97.332565v-463.333718H587.657169zM800.394971 568.32945h97.332564v-695.916023h-97.332564zM528.123659 834.694659a93.788903 93.788903 0 0 0 93.788903-93.729842h61.305341a155.094244 155.094244 0 0 1-310.129427 0h61.305341a93.788903 93.788903 0 0 0 93.729842 93.729842z"  horiz-adv-x="1024" />
      
      <glyph glyph-name="fuzhi" unicode="&#58990;" d="M924 34a40 40 0 0 0 0 80 20 20 0 0 1 20 20V796a20 20 0 0 1-20 20H262a20 20 0 0 1-20-20 40 40 0 0 0-80 0A100 100 0 0 0 262 896h662a100 100 0 0 0 100-100v-662a100 100 0 0 0-100-100zM762-128H100A100 100 0 0 0 0-28V634a100 100 0 0 0 100 100h662a100 100 0 0 0 100-100v-662a100 100 0 0 0-100-100zM100 654a20 20 0 0 1-20-20v-662a20 20 0 0 1 20-20h662a20 20 0 0 1 20 20V634a20 20 0 0 1-20 20zM431 89a40 40 0 0 0-40 40V477a40 40 0 0 0 80 0v-348a40 40 0 0 0-40-40zM605 263H257a40 40 0 0 0 0 80h348a40 40 0 0 0 0-80z"  horiz-adv-x="1024" />
      
      <glyph glyph-name="gongsimingcheng" unicode="&#58930;" d="M512 896c282.729292 0 512-229.288762 512-512.018054 0-282.711238-229.270708-511.981946-512-511.981946C229.288762-128.018054 0 101.252653 0 383.981946 0 666.711238 229.288762 896 512 896L512 896zM748.041045 135.068232 748.041045 665.573821l-83.879968 73.10159-279.154554-104.31736 0-26.088367 253.517543 85.450686 0-596.927113 168.770972 0 0 38.274974L748.041045 135.068232 748.041045 135.068232zM294.157622 298.495151l132.933319 26.593886 0 67.450615-132.933319-34.952996L294.157622 298.495151 294.157622 298.495151zM294.157622 95.890546l132.933319 0 0 70.772594-132.933319-9.640961L294.157622 95.890546 294.157622 95.890546zM294.157622 197.517825l132.933319 12.83656 0 67.34229-132.933319-22.351141L294.157622 197.517825 294.157622 197.517825zM294.157622 401.422335l132.933319 36.577877 0 70.068479-132.933319-44.973095L294.157622 401.422335 294.157622 401.422335zM574.539864 575.627631l-75.069502 45.604993-282.602913-101.898092-0.144434-424.87027 37.227829 0L253.950845 498.788815l211.45118 69.635178 0-471.811277 109.155894 0L574.539864 575.627631 574.539864 575.627631z"  horiz-adv-x="1024" />
      
      <glyph glyph-name="gongsidizhi" unicode="&#58891;" d="M512-128C229.2224-128 0 101.2224 0 384S229.2224 896 512 896s512-229.2224 512-512-229.2224-512-512-512z m0 998.4C243.3792 870.4 25.6 652.6208 25.6 384s217.7792-486.4 486.4-486.4 486.4 217.7792 486.4 486.4S780.6208 870.4 512 870.4zM512-128C229.2224-128 0 101.2224 0 384S229.2224 896 512 896s512-229.2224 512-512-229.2224-512-512-512z m0 998.4C243.3792 870.4 25.6 652.6208 25.6 384s217.7792-486.4 486.4-486.4 486.4 217.7792 486.4 486.4S780.6208 870.4 512 870.4zM401.9456 409.8048c3.6864-5.3248 19.072-27.8528 96.4864-134.6304l0.6144-0.5888a24.9088 24.9088 0 0 1 18.432-8.8832c7.3728 0 14.7456 3.5584 18.432 9.472a22757.888 22757.888 0 0 0 98.3296 136.4224l0.6144 0.5888a132.7104 132.7104 0 0 1 20.2752 69.376c0 72.96-61.44 132.864-137.6512 132.864-76.1856 0-137.6512-59.3152-137.6512-132.864 0-25.4976 7.3728-49.8176 22.1184-71.7568z m114.9184 170.8032c56.5248 0 102.6304-44.4672 102.6304-99.0464 0-17.792-4.9152-34.9696-14.7456-51.584-3.6864-5.3504-54.0928-75.3152-87.2704-121.5744-25.8048 35.584-81.7152 113.28-87.2448 120.3968a94.1056 94.1056 0 0 0-16.6144 52.1728c0.64 54.5792 46.72 99.6352 103.2448 99.6352z m0-173.1584c41.7792 0 76.2112 33.2032 76.2112 73.5232 0 40.3456-34.432 73.5488-76.2112 73.5488s-76.1856-33.2032-76.1856-73.5488c0-40.32 33.792-73.5232 76.1856-73.5232z m0 113.8688c22.7328 0 41.1648-17.792 41.1648-39.7568 0-22.528-18.432-39.7312-41.1648-39.7312-22.7328 0-41.1648 17.792-41.1648 39.7312 0 21.9648 18.432 39.7568 41.1648 39.7568z m291.8912-286.464l-85.4272 159.5392h-70.656l-27.648-34.4064h76.8l78.0544-144.1024 1.2288-1.2032c4.3008-5.3248 4.3008-12.4416 1.2288-18.3808-3.072-5.9392-9.216-9.472-16.5888-9.472H258.7904c-7.3728 0-13.5424 3.5328-16.6144 9.472a17.792 17.792 0 0 0 1.8432 18.9952l0.6144 0.5888 76.8256 144.6912h87.2448l-28.8768 34.4064h-79.872L214.528 234.8544a48.6144 48.6144 0 0 1-3.6864-52.7872A54.3232 54.3232 0 0 1 259.4048 153.6h506.9568c20.2752 0 38.7072 10.6752 47.9232 28.4672 7.9872 17.2032 6.144 37.376-5.5296 52.7872z"  horiz-adv-x="1024" />
      
      <glyph glyph-name="zhanweifu" unicode="&#59094;" d="M801.152 725.077333c28.202667 0 51.072-22.869333 51.072-51.114666v-579.114667c0-28.202667-22.869333-51.072-51.072-51.072H222.037333a51.114667 51.114667 0 0 0-51.114666 51.072V673.962667c0 28.245333 22.869333 51.114667 51.114666 51.114666h579.114667z m0-51.114666H222.037333v-579.114667h579.114667V673.962667zM221.141333 124.586667L768 671.488c18.858667 18.858667 34.090667 22.485333 45.696 10.837333 11.605333-11.605333 8.021333-26.88-10.837333-45.696L256 89.770667c-18.858667-18.858667-34.090667-22.485333-45.696-10.88-11.605333 11.648-8.021333 26.88 10.837333 45.738666zM464.981333 84.736l328.106667 328.106667c11.306667 11.306667 22.741333 11.136 34.389333-0.469334 11.605333-11.648 11.776-23.082667 0.426667-34.389333l-328.106667-328.106667c-11.264-11.306667-22.741333-11.178667-34.346666 0.426667-11.648 11.648-11.776 23.125333-0.469334 34.432zM202.538667 383.402667l328.106666 328.106666c11.306667 11.306667 22.741333 11.136 34.389334-0.469333 11.605333-11.648 11.776-23.082667 0.426666-34.389333l-328.106666-328.106667c-11.306667-11.306667-22.741333-11.178667-34.389334 0.426667-11.605333 11.648-11.776 23.125333-0.426666 34.432z"  horiz-adv-x="1024" />
      
      <glyph glyph-name="control-top" unicode="&#58951;" d="M991.985184 528.01023H847.91851V688.005292a32.037394 32.037394 0 0 1-31.992239 32.003527H655.987653V863.996472A32.037394 32.037394 0 0 1 623.995414 896H32.07126A32.037394 32.037394 0 0 1 0.067732 863.996472v-592.014463a32.037394 32.037394 0 0 1 32.003528-31.992239h159.927329v-143.998942a32.037394 32.037394 0 0 1 32.003528-31.992239h144.055385v-160.00635a32.037394 32.037394 0 0 1 32.003528-31.992239h591.935442a32.026105 32.026105 0 0 1 31.992239 31.992239V496.006703a32.059971 32.059971 0 0 1-32.003527 32.003527zM224.002117 239.98977000000002h400.004586a32.026105 32.026105 0 0 1 31.992239 31.992239V688.005292h159.938617l-0.045155-592.014464H384.279396l-0.225775 0.022577-0.225774-0.022577H224.002117V239.98977000000002z m767.983067-335.997531H400.049741V63.99858900000004h415.87653a32.026105 32.026105 0 0 1 31.992239 31.992239V496.006703h144.066674v-592.014464z"  horiz-adv-x="1024" />
      
      <glyph glyph-name="control-bottom" unicode="&#58952;" d="M991.92874 528.0328079999999H847.986242V688.005292a32.037394 32.037394 0 0 1-31.992239 32.003527H655.987653V863.996472A32.037394 32.037394 0 0 1 623.995414 896H32.07126A32.037394 32.037394 0 0 1 0.067732 863.996472v-592.014463a32.037394 32.037394 0 0 1 32.003528-31.992239h159.995061v-143.998942a32.037394 32.037394 0 0 1 32.003528-31.992239h143.931209v-159.983773a32.037394 32.037394 0 0 1 32.003528-31.992239H991.940029a32.026105 32.026105 0 0 1 31.992239 31.992239V496.02928a32.059971 32.059971 0 0 1-32.003528 32.003528zM32.07126 863.996472h591.935443l-0.045155-592.014463H208.288215l-0.225774 0.022577-0.225775-0.022577H32.07126V863.996472z m191.998589-624.006702h399.936854a32.026105 32.026105 0 0 1 31.992239 31.992239V688.005292h160.00635v-592.014464l-416.000706 0.022577-0.225774-0.022577H224.069849V239.98977000000002z"  horiz-adv-x="1024" />
      
      <glyph glyph-name="tijiaowancheng" unicode="&#58921;" d="M641 829c33.137 0 60-26.863 60-60v-7h105.57c33.14 0 60.87-25.857 61.422-58.994L868 702v-706c0-33.282-27.398-59.472-60.428-60H217.43c-33.14 0-60.87 25.857-61.422 58.994L156-4V702c0 33.282 27.398 59.472 60.428 60H324v7c0 32.806 26.328 59.462 59.008 59.992L384 829z m60-147c0-33.137-26.863-60-60-60H384c-33.137 0-60 26.863-60 60v8h-96v-682h568V690h-95z m-72 75H396v-63h233v63zM653.577 448.662c17.055-17.054 17.055-44.705 0-61.76L518.69 252.013a44.246 44.246 0 0 0-3.172-3.531 43.578 43.578 0 0 0-27.002-12.639c-12.562-1.235-25.556 2.958-35.178 12.58a44.16 44.16 0 0 0-3.168 3.527l-72.773 72.774c-17.088 17.088-17.088 44.792 0 61.88 17.087 17.087 44.791 17.087 61.879 0l45.24-45.241 107.3 107.3c17.055 17.054 44.706 17.054 61.761 0z"  horiz-adv-x="1024" />
      
      <glyph glyph-name="shangyiyiceng" unicode="&#58954;" d="M157.5788807570935 487.99460792541504L500.34105297923094 331.1336603164673c3.69340181350708-1.665651798248291 7.676482200622559-2.5346875190734863 11.659562587738039-2.5346875190734863 3.9830803871154785 0 7.966160774230957 0.8690357208251953 11.659562587738039 2.5346875190734863l342.68975257873535 156.86094760894775c10.138750076293945 4.634857177734375 16.43925905227661 14.483928680419922 16.36683940887451 25.63655376434326-0.07241964340209961 11.15262508392334-6.372928619384766 20.929276943206787-16.58409833908081 25.491714477539062L523.5153388679028 693.3042969703674a28.345048427581787 28.345048427581787 0 0 1-23.029446601867676 0L157.79613968729979 539.1228761672974C147.5849699676038 534.5604386329651 141.28446099162107 524.7837867736816 141.21204134821897 513.6311616897583c-0.07241964340209961-11.15262508392334 6.228089332580566-20.929276943206787 16.36683940887451-25.63655376434326z m708.6262106895447-205.2372694015503l-91.03149175643921 40.91709852218628c-9.12487506866455 4.127919673919678-19.842982292175293 0-23.97090196609497-9.052455425262451-4.127919673919678-9.12487506866455 0-19.842982292175293 9.052455425262451-23.97090196609497L834.9922251403333 257.1207847595215 512.0006155669689 109.23987293243408 189.00900599360472 257.1207847595215l74.5922327041626 33.60271453857422c9.12487506866455 4.127919673919678 13.180375099182129 14.84602689743042 9.052455425262451 23.97090196609497s-14.84602689743042 13.180375099182129-23.97090196609497 9.052455425262451L157.79613968729979 282.75733852386475C147.5849699676038 278.19490098953247 141.28446099162107 268.418249130249 141.21204134821897 257.2656240463257c-0.07241964340209961-11.15262508392334 6.228089332580566-21.001696586608887 16.36683940887451-25.63655376434326L500.34105297923094 74.76812267303467c3.69340181350708-1.665651798248291 7.676482200622559-2.5346875190734863 11.659562587738039-2.5346875190734863s7.966160774230957 0.8690357208251953 11.659562587738039 2.5346875190734863l342.68975257873535 156.86094760894775c10.138750076293945 4.634857177734375 16.43925905227661 14.483928680419922 16.36683940887451 25.63655376434326s-6.300508975982666 20.929276943206787-16.51167869567871 25.491714477539062z"  horiz-adv-x="1024" />
      
      <glyph glyph-name="xiayiyiceng" unicode="&#58955;" d="M133.95080614089972 494.9275817871094L499.563789844513 327.60923767089844c3.9396286010742188-1.7766952514648438 8.188247680664062-2.7036666870117188 12.436866760253908-2.7036666870117188 4.248619079589844 0 8.497238159179688 0.926971435546875 12.436866760253908 2.7036666870117188l365.5357360839844 167.31834411621094c10.814666748046875 4.94384765625 17.53520965576172 15.44952392578125 17.457962036132812 27.345657348632812-0.07724761962890625 11.896133422851562-6.79779052734375 22.324562072753906-17.68970489501953 27.191162109375L524.2830281257629 713.9245834350586a30.234718322753906 30.234718322753906 0 0 1-24.564743041992188 0L134.18254899978643 549.4644012451172C123.29063463211071 544.5978012084961 116.57009172439581 534.1693725585938 116.4928441047669 522.2732391357422c-0.07724761962890625-11.896133422851562 6.6432952880859375-22.324562072753906 17.457962036132812-27.345657348632812zM512.0006566047668 677.0774688720703l344.5243835449219-154.95872497558594-344.5243835449219-157.73963928222656L167.47627305984503 522.1187438964844l344.5243835449219 154.95872497558594zM889.8187642097474 276.00782775878906L712.3037343025208 355.8818664550781c-10.660171508789062 4.7893524169921875-22.788047790527344 4.712104797363281-33.3709716796875-0.07724761962890625l-166.8548583984375-76.39789581298828-166.8548583984375 76.39789581298828c-10.582923889160156 4.866600036621094-22.788047790527344 4.866600036621094-33.3709716796875 0.07724761962890625l-177.66952514648438-79.87403869628906C123.29063463211071 271.14122772216797 116.57009172439581 260.7127990722656 116.4928441047669 248.81666564941406c-0.07724761962890625-11.896133422851562 6.6432952880859375-22.401809692382812 17.457962036132812-27.345657348632812L499.563789844513 54.15266418457031c3.9396286010742188-1.7766952514648438 8.188247680664062-2.7036666870117188 12.436866760253908-2.7036666870117188 4.248619079589844 0 8.497238159179688 0.926971435546875 12.436866760253908 2.7036666870117188l365.5357360839844 167.31834411621094c10.814666748046875 4.94384765625 17.53520965576172 15.44952392578125 17.457962036132812 27.345657348632812 0 11.896133422851562-6.720542907714844 22.324562072753906-17.612457275390625 27.191162109375z"  horiz-adv-x="1024" />
      
      <glyph glyph-name="shangyiyiceng1" unicode="&#60925;" d="M384 288H128a32 32 0 0 0-32 32V768a32 32 0 0 0 32 32h448a32 32 0 0 0 32-32v-256h-192a32 32 0 0 1-32-32v-192z m-32 32v160a64 64 0 0 0 64 64h160V768H128v-448h224z m544-352H448a32 32 0 0 0-32 32V448a32 32 0 0 0 32 32h448a32 32 0 0 0 32-32v-448a32 32 0 0 0-32-32z"  horiz-adv-x="1024" />
      
      <glyph glyph-name="xiayiyiceng1" unicode="&#60926;" d="M128 800h448a32 32 0 0 0 32-32v-448a32 32 0 0 0-32-32H128a32 32 0 0 0-32 32V768a32 32 0 0 0 32 32z m512-320h256a32 32 0 0 0 32-32v-448a32 32 0 0 0-32-32H448a32 32 0 0 0-32 32v256h192a32 32 0 0 1 32 32v192z m32-32v-160a64 64 0 0 0-64-64h-160v-224h448V448h-224z"  horiz-adv-x="1024" />
      
      <glyph glyph-name="zuoduiqi" unicode="&#58996;" d="M960.007451 896H64.00158C28.652059 896 0 867.346134 0 831.996613s28.652059-64.00158 64.00158-64.00158h896.005871c35.338684 0 63.992549 28.652059 63.992549 64.00158C1024 867.346134 995.346134 896 960.007451 896zM704.001129-0.007676H64.00158C28.652059-0.007676 0-28.659736 0-64.009257c0-35.338684 28.652059-63.990743 64.00158-63.990743h639.999549c35.347715 0 64.00158 28.652059 64.00158 63.990743 0 35.349521-28.653866 64.00158-64.00158 64.001581zM704.001129 599.037652H64.00158C28.652059 599.037652 0 570.385593 0 535.036071c0-35.349521 28.652059-64.00158 64.00158-64.00158h639.999549c35.347715 0 64.00158 28.652059 64.00158 64.00158 0 35.349521-28.653866 64.00158-64.00158 64.001581zM960.007451 296.954672H64.00158C28.652059 296.954672 0 268.300806 0 232.953091c0-35.338684 28.652059-63.990743 64.00158-63.990743h896.005871c35.338684 0 63.992549 28.652059 63.992549 63.990743 0 35.347715-28.653866 64.00158-63.992549 64.001581z"  horiz-adv-x="1024" />
      
      <glyph glyph-name="youduiqi" unicode="&#58998;" d="M960.007451 896H64.00158C28.652059 896 0 867.346134 0 831.996613s28.652059-64.00158 64.00158-64.00158h896.005871c35.338684 0 63.992549 28.652059 63.992549 64.00158C1024 867.346134 995.346134 896 960.007451 896zM960.007451-0.007676H319.998871c-35.338684 0-63.990743-28.652059-63.990743-64.001581 0-35.338684 28.652059-63.990743 63.990743-63.990743h640.00858c35.338684 0 63.992549 28.652059 63.992549 63.990743 0 35.349521-28.653866 64.00158-63.992549 64.001581zM960.007451 599.037652H319.998871c-35.338684 0-63.990743-28.653866-63.990743-64.001581 0-35.349521 28.652059-64.00158 63.990743-64.00158h640.00858c35.338684 0 63.992549 28.652059 63.992549 64.00158 0 35.349521-28.653866 64.00158-63.992549 64.001581zM960.007451 296.954672H64.00158C28.652059 296.954672 0 268.300806 0 232.953091c0-35.338684 28.652059-63.990743 64.00158-63.990743h896.005871c35.338684 0 63.992549 28.652059 63.992549 63.990743 0 35.347715-28.653866 64.00158-63.992549 64.001581z"  horiz-adv-x="1024" />
      
      <glyph glyph-name="fabu" unicode="&#58929;" d="M1024 896 384 192 0 320 1024 896ZM1024 896 1024 0 483.414063 163.148435 1024 896ZM384 155.511718 364.578125 161.699219 512-128 606.945313 90.5 476.078125 128 496.279297-64 384 155.511718Z"  horiz-adv-x="1024" />
      
      <glyph glyph-name="margin" unicode="&#59650;" d="M810.666667 810.666667 213.333333 810.666667C187.733333 810.666667 170.666667 827.733333 170.666667 853.333333s17.066667 42.666667 42.666667 42.666667l597.333333 0c25.6 0 42.666667-17.066667 42.666667-42.666667S836.266667 810.666667 810.666667 810.666667zM810.666667-128 213.333333-128c-25.6 0-42.666667 17.066667-42.666667 42.666667s17.066667 42.666667 42.666667 42.666667l597.333333 0c25.6 0 42.666667-17.066667 42.666667-42.666667S836.266667-128 810.666667-128zM981.333333 42.666667c-25.6 0-42.666667 17.066667-42.666667 42.666667L938.666667 682.666667c0 25.6 17.066667 42.666667 42.666667 42.666667s42.666667-17.066667 42.666667-42.666667l0-597.333333C1024 59.733333 1006.933333 42.666667 981.333333 42.666667zM42.666667 42.666667c-25.6 0-42.666667 17.066667-42.666667 42.666667L0 682.666667c0 25.6 17.066667 42.666667 42.666667 42.666667s42.666667-17.066667 42.666667-42.666667l0-597.333333C85.333333 59.733333 68.266667 42.666667 42.666667 42.666667zM810.666667 42.666667 213.333333 42.666667c-25.6 0-42.666667 17.066667-42.666667 42.666667L170.666667 682.666667c0 25.6 17.066667 42.666667 42.666667 42.666667l597.333333 0c25.6 0 42.666667-17.066667 42.666667-42.666667l0-597.333333C853.333333 59.733333 836.266667 42.666667 810.666667 42.666667zM256 128l512 0L768 640 256 640 256 128z"  horiz-adv-x="1024" />
      
      <glyph glyph-name="copy" unicode="&#59141;" d="M868-61.8h-546c-50.3 0-91.3 40.9-91.3 91.3v90.9h37v-90.9c0-29.9 24.4-54.3 54.3-54.3h546c29.9 0 54.3 24.4 54.3 54.3v582.3c0 29.9-24.4 54.3-54.3 54.3h-126.3v37h126.3c50.3 0 91.3-41 91.3-91.3v-582.4c0-50.3-40.9-91.2-91.3-91.2zM563.8 314.6h-296c-10.2 0-18.5 8.3-18.5 18.5s8.3 18.5 18.5 18.5h296.1c10.2 0 18.5-8.3 18.5-18.5s-8.3-18.5-18.6-18.5zM563.8 462.6h-296c-10.2 0-18.5 8.3-18.5 18.5s8.3 18.5 18.5 18.5h296.1c10.2 0 18.5-8.3 18.5-18.5s-8.3-18.5-18.6-18.5zM563.8 610.6h-296c-10.2 0-18.5 8.3-18.5 18.5s8.3 18.5 18.5 18.5h296.1c10.2 0 18.5-8.3 18.5-18.5-0.1-10.2-8.3-18.5-18.6-18.5zM693.3 795.6c20.4 0 37-16.6 37-37v-592.1c0-20.4-16.6-37-37-37h-555c-20.4 0-37 16.6-37 37v592.1c0 20.4 16.6 37 37 37h555M693.3 832.6h-555c-40.9 0-74-33.1-74-74v-592.1c0-40.9 33.1-74 74-74h555.1c40.9 0 74 33.1 74 74v592.1c0 40.9-33.2 74-74.1 74z"  horiz-adv-x="1024" />
      
      <glyph glyph-name="shuzishurukuang" unicode="&#59036;" d="M896 672h-768c-35.2 0-64-28.8-64-64v-448c0-35.2 28.8-64 64-64h768c35.2 0 64 28.8 64 64v448c0 35.2-28.8 64-64 64zM896 192c0-19.2-12.8-32-32-32h-704c-19.2 0-32 12.8-32 32v384c0 19.2 12.8 32 32 32h704c19.2 0 32-12.8 32-32v-384zM291.2 483.2c-12.8-6.4-22.4-12.8-35.2-16v-41.6c22.4 6.4 41.6 16 54.4 28.8v-198.4h38.4v246.4h-28.8c-6.4-3.2-19.2-12.8-28.8-19.2zM489.6 336c22.4 16 41.6 28.8 48 38.4 16 16 22.4 38.4 22.4 57.6 0 22.4-6.4 38.4-22.4 54.4-16 12.8-35.2 19.2-57.6 19.2-25.6 0-48-9.6-60.8-25.6-16-16-22.4-38.4-22.4-67.2h38.4c0 19.2 3.2 35.2 12.8 44.8 6.4 9.6 19.2 16 32 16s25.6-3.2 32-9.6c6.4-6.4 9.6-16 9.6-28.8s-6.4-25.6-16-38.4c-6.4-6.4-16-16-32-28.8-28.8-19.2-44.8-35.2-54.4-44.8-16-19.2-22.4-41.6-22.4-64h166.4v35.2h-118.4c6.4 12.8 22.4 25.6 44.8 41.6zM723.2 390.4c25.6 9.6 38.4 25.6 38.4 54.4 0 22.4-6.4 38.4-22.4 51.2-16 12.8-35.2 19.2-57.6 19.2s-41.6-6.4-57.6-19.2c-16-12.8-25.6-32-25.6-57.6h38.4c0 16 6.4 25.6 12.8 32s19.2 9.6 32 9.6 25.6-3.2 32-9.6c6.4-6.4 9.6-16 9.6-28.8s-3.2-22.4-9.6-28.8c-6.4-6.4-19.2-9.6-32-9.6h-16v-28.8h16c16 0 25.6-3.2 35.2-9.6s12.8-16 12.8-32c0-12.8-3.2-22.4-12.8-28.8-9.6-9.6-19.2-12.8-35.2-12.8-12.8 0-25.6 3.2-32 12.8-9.6 9.6-12.8 22.4-16 38.4h-38.4c3.2-28.8 12.8-48 28.8-64 16-12.8 35.2-19.2 60.8-19.2 25.6 0 48 6.4 64 22.4 16 16 22.4 32 22.4 54.4 0 16-3.2 25.6-12.8 35.2-9.6 6.4-22.4 16-35.2 19.2z"  horiz-adv-x="1024" />
      
      <glyph glyph-name="tuichu" unicode="&#58894;" d="M542.7 522.4h-59.5c-24.8 0-44.8 20.1-44.8 44.8V728.1c0 24.8 20.1 44.8 44.8 44.8h59.5c24.8 0 44.8-20.1 44.8-44.8v-160.9c0.1-24.7-20-44.8-44.8-44.8z m0 0M542.7 497.5h-59.5c-38.5 0-69.7 31.3-69.7 69.7V728.1c0 38.5 31.3 69.7 69.7 69.7h59.5c38.5 0 69.7-31.3 69.7-69.7v-160.9c0.1-38.4-31.2-69.7-69.7-69.7zM483.3 748c-11 0-19.9-8.9-19.9-19.9v-160.9c0-11 8.9-19.9 19.9-19.9h59.5c11 0 19.9 8.9 19.9 19.9V728.1c0 11-8.9 19.9-19.9 19.9h-59.5zM513 84.6M513-32.3c-218.7 0-396.6 177.9-396.6 396.6 0 132.3 65.4 255.3 175 329 11.4 7.7 26.9 4.6 34.6-6.8 7.7-11.4 4.6-26.9-6.8-34.6-95.7-64.4-152.9-171.9-152.9-287.6 0-191.2 155.5-346.7 346.7-346.7s346.7 155.5 346.7 346.7c0 115.7-57.2 223.2-152.9 287.6-11.4 7.7-14.5 23.2-6.8 34.6 7.7 11.4 23.2 14.5 34.6 6.8 109.6-73.6 175-196.6 175-329 0-218.7-177.9-396.6-396.6-396.6z m0 0"  horiz-adv-x="1024" />
      
      <glyph glyph-name="ps" unicode="&#59075;" d="M113.7664-128C51.2-128 0-76.8 0-14.2336V782.2336C0 844.8 51.2 896 113.7664 896h796.4672C972.8 896 1024 844.8 1024 782.2336v-796.4672C1024-76.8 972.8-128 910.2336-128H113.7664z m146.0736 451.1488h66.9696c54.016-1.7664 99.0208 13.056 135.04 44.544 35.968 31.4112 53.9904 72.4736 53.9904 123.136 0 50.0224-15.3856 88.448-46.1824 115.3536-30.7712 26.88-74.0608 40.32-129.792 40.32h-146.688v-516.352h66.6624v193.024z m321.9968-113.3056v-66.688c28.4416-14.4384 61.7728-21.632 100.0192-21.632 43.9552 0 79.7952 9.7024 107.4688 29.1584 27.6992 19.456 41.5232 46.0288 41.5232 79.8208 0 24.2176-7.2448 44.544-21.6832 61.0048-14.464 16.4352-42.2144 32.3328-83.3536 47.6672-32.4096 12.8768-53.3504 23.424-62.7968 31.6672-9.472 8.192-14.1824 19.6608-14.1824 34.304 0 14.9248 6.5536 26.88 19.6608 36.0192 13.1328 9.1136 30.1056 13.6704 51.0208 13.6704 34.8672 0 66.0992-8.8832 93.6704-26.6496v62.976c-26.9312 10.88-56.0128 16.3328-87.3728 16.3328-40.4224 0-74.496-9.8304-102.144-29.4912-27.648-19.6864-41.472-45.824-41.472-78.4896 0-22.912 6.0928-42.3936 18.304-58.5216 12.2368-16.1024 38.784-32.3584 79.6672-48.8192 33.9968-12.672 56.5504-23.6288 67.6608-32.8448 11.136-9.216 16.6656-20.9408 16.6656-35.1488 0-33.3568-25.4464-50.0224-76.3392-50.0224-37.9904 0-73.4464 11.904-106.3168 35.6864zM259.84 587.8272h67.9936c78.6688 0 118.016-33.2288 118.016-99.6608 0-34.2272-10.5728-60.4928-31.6672-78.8224-21.12-18.3552-51.9936-27.4944-92.672-27.4944h-61.696v205.9776z"  horiz-adv-x="1024" />
      
      <glyph glyph-name="keep" unicode="&#58999;" d="M643.85952427 633.09469013c-18.01693867 0-32.75707733-14.614528-32.75707734-32.48401066v-81.20456534c0-17.86948267 14.74013867-32.489472 32.75707734-32.489472s32.75707733 14.61998933 32.75707733 32.489472v81.20456534c0 17.86948267-14.74013867 32.48401067-32.75707733 32.48401066zM910.47417173 582.15355733l-145.784832 207.89111467c-13.09627733 17.86948267-34.39547733 29.23451733-58.966016 30.86199467H175.01825707c-36.03933867 0-65.519616-29.23451733-65.519616-64.96802134v-745.49930666c0-35.733504 29.48027733-63.34600533 65.519616-63.34600534h689.586176c36.03933867 0 63.88667733 29.23997867 63.88667733 63.34600534v526.23223466c1.6384 17.86948267-6.54813867 34.111488-18.01693867 45.481984zM205.0555904 724.12091733h517.59786667v-220.889088c0-30.85653333-26.2144-58.46903467-58.966016-58.46903466H264.0216064c-32.76253867 0-58.966016 25.985024-58.966016 58.46903466V724.12091733z m544.25572693-665.059328h-462.60770133c-24.6382592 0-44.61253973 20.29431467-44.61253973 45.32906667s19.97318827 45.32906667 44.61253973 45.32906667h462.60770133c24.6382592 0 44.61253973-20.29431467 44.61253974-45.32906667s-19.97428053-45.32906667-44.61253974-45.32906667z m0.00109227 167.10587734H286.70252373c-24.6382592 0-44.61253973 20.29431467-44.61253973 45.32906666s19.97318827 45.32906667 44.61253973 45.32906667h462.61097814c24.6382592 0 44.61253973-20.29431467 44.61253973-45.32906667s-19.97428053-45.32906667-44.613632-45.32906666z"  horiz-adv-x="1024" />
      
      <glyph glyph-name="zitijiacu" unicode="&#60547;" d="M768.96 320.928c-22.144 34.112-54.816 56.8-97.984 68.032v2.176c22.88 10.88 42.112 23.04 57.696 36.48 15.616 12.704 27.584 26.144 35.936 40.288 16.32 29.76 24.128 60.96 23.392 93.632 0 63.872-19.776 115.232-59.328 154.08-39.2 38.464-97.824 58.048-175.84 58.784H215.232v-793.728H579.52c62.432 0 114.496 20.864 156.256 62.624 42.112 39.936 63.52 94.176 64.224 162.752 0 41.376-10.336 79.68-31.04 114.88zM344.32 667.168h194.912c43.904-0.736 76.224-11.424 96.896-32.128 21.056-22.144 31.584-49.184 31.584-81.12s-10.528-58.432-31.584-79.488c-20.672-22.848-52.992-34.304-96.896-34.304H344.32V667.168z m304.352-536.256c-20.672-23.584-53.344-35.744-97.984-36.48H344.32v238.432h206.336c44.64-0.704 77.312-12.512 97.984-35.392 20.672-23.232 31.04-51.168 31.04-83.84 0-31.904-10.336-59.488-31.008-82.72z"  horiz-adv-x="1024" />
      
      <glyph glyph-name="riqi" unicode="&#59029;" d="M326.656 630.272h9.728c11.776 0 21.504 9.728 21.504 21.504V798.208c0 14.336-11.776 26.112-26.112 26.112-14.848 0-26.624-11.776-26.624-26.624v-136.192c0.512-25.6 6.656-31.232 21.504-31.232z m335.872 0h10.24c11.776 0 21.504 9.728 21.504 21.504V796.672c0 15.36-12.288 27.648-27.648 27.648-13.824 0-25.088-11.264-25.088-25.088v-137.728c0-20.48 5.632-31.232 20.992-31.232z m146.944 136.192h-89.088v-57.856h89.088c31.744 0 57.856-26.112 57.856-57.856v-57.856H132.096V645.632c0 34.816 28.16 62.976 62.976 62.976h78.848V766.464H195.072c-62.976 0-115.712-62.976-115.712-120.832v-503.808c0-57.856 52.736-125.952 115.712-125.952h619.52c57.856 0 104.96 62.976 104.96 125.952V645.632c-5.12 57.856-47.104 120.832-110.08 120.832z m57.856-619.52c0-43.52-35.328-78.848-78.848-78.848H200.192c-34.816 0-62.976 28.16-62.976 62.976V535.04h729.6v-388.096z m-251.904 619.52H389.632v-57.856h225.792V766.464z m0 0M712.192 370.688c-1.024 14.848-14.336 26.112-29.184 26.112H315.904c-17.92 0-29.184-17.408-29.184-29.184 0-17.408 11.776-29.184 29.184-29.184h367.616c18.432 0 30.208 13.312 28.672 32.256zM394.752 291.84c-17.92 0-29.184-17.408-29.184-29.184 0-17.408 11.776-29.184 29.184-29.184h209.92c14.848 0 28.16 11.264 29.184 26.112 1.536 18.944-10.752 32.256-29.184 32.256h-209.92z"  horiz-adv-x="1024" />
      
      <glyph glyph-name="padding" unicode="&#59097;" d="M944 816v-864H80V816h864m40.6 80H39.4C17.7 896 0 878.3 0 856.6v-945.1c0-21.8 17.7-39.4 39.4-39.4h945.1c21.8 0 39.4 17.7 39.4 39.4V856.6C1024 878.3 1006.3 896 984.6 896zM642.6 699.9H381.4c-21.8 0-39.4-17.7-39.4-39.4s17.7-39.4 39.4-39.4h261.1c21.8 0 39.4 17.7 39.4 39.4s-17.6 39.4-39.3 39.4zM642.6 147H381.4c-21.8 0-39.4-17.7-39.4-39.4s17.7-39.4 39.4-39.4h261.1c21.8 0 39.4 17.7 39.4 39.4S664.3 147 642.6 147zM788.4 554c-21.8 0-39.4-17.7-39.4-39.4v-261.1c0-21.8 17.7-39.4 39.4-39.4s39.4 17.7 39.4 39.4V514.6c0.1 21.7-17.6 39.4-39.4 39.4zM235.6 554c-21.8 0-39.4-17.7-39.4-39.4v-261.1c0-21.8 17.7-39.4 39.4-39.4s39.4 17.7 39.4 39.4V514.6c0 21.7-17.7 39.4-39.4 39.4z"  horiz-adv-x="1024" />
      
      <glyph glyph-name="zitisuoxiao" unicode="&#58896;" d="M631.1 629.1h345.4v-41H631.1zM368.5 745.5L57.2 40.8h73.2l101.3 236.8h346.7l98.9-236.8h78.1L444.2 745.5h-75.7zM559 324H251.3l54.9 127.6c35.4 82.2 65.9 156.6 96.4 241.7h4.9c31.7-85.1 61-159.5 97.7-241.7L559 324z"  horiz-adv-x="1024" />
      
      <glyph glyph-name="zitifangda" unicode="&#58898;" d="M631.1 629.1h152.2v-41H631.1zM824.3 629.1h152.2v-41H824.3zM783.3 588.2h41V436h-41zM783.3 781.4h41v-152.2h-41zM783.3 629.1h41v-41h-41zM368.5 745.5L57.2 40.8h73.2l101.3 236.8h346.7l98.9-236.8h78.1L444.2 745.5h-75.7zM559 324H251.3l54.9 127.6c35.4 82.2 65.9 156.6 96.4 241.7h4.9c31.7-85.1 61-159.5 97.7-241.7L559 324z"  horiz-adv-x="1024" />
      
      <glyph glyph-name="juxing" unicode="&#58912;" d="M841.34-63.36H182.66c-65.06 0-117.99 52.94-117.99 118.02V713.31c0 65.08 52.94 118.04 117.99 118.04h658.68c65.06 0 117.99-52.96 117.99-118.04v-658.65c0-65.08-52.93-118.02-117.99-118.02zM182.66 753.83c-22.31 0-40.51-18.18-40.51-40.51v-658.65c0-22.34 18.2-40.49 40.51-40.49h658.68c22.31 0 40.51 18.15 40.51 40.49V713.31c0 22.34-18.2 40.51-40.51 40.51H182.66z"  horiz-adv-x="1024" />
      
      <glyph glyph-name="anniuzu" unicode="&#58927;" d="M305.28 444.8A21.76 21.76 0 0 1 320 469.76a186.88 186.88 0 0 0 0 72.96A195.84 195.84 0 0 0 541.44 704a192 192 0 0 0 70.4-25.6 21.12 21.12 0 0 1 28.16 9.6 20.48 20.48 0 0 1-6.4 28.8 237.44 237.44 0 0 1-356.48-167.68 240.64 240.64 0 0 1 0-88.32 21.76 21.76 0 0 1 21.12-16.64z m0 0M890.88 288a103.04 103.04 0 0 1-31.36 74.88 378.88 378.88 0 1 1-571.52-154.88 74.24 74.24 0 0 1 0-11.52 128 128 0 0 1 14.72-32.64c33.92-51.2 72.32-110.08 110.72-167.04a245.12 245.12 0 0 1 166.4-107.52h131.2A210.56 210.56 0 0 1 885.76 64a312.32 312.32 0 0 1 4.48 54.4V288zM196.48 512a315.52 315.52 0 0 0 631.04 0 320 320 0 0 0-25.6-124.16h-8.96A119.04 119.04 0 0 1 768 384a100.48 100.48 0 0 1-34.56 21.12h-7.04a205.44 205.44 0 0 1 21.76 67.84 233.6 233.6 0 0 1-26.24 151.04 21.12 21.12 0 0 1-28.8 8.32 20.48 20.48 0 0 1-8.32-28.16 192 192 0 0 0 21.76-128 183.04 183.04 0 0 0-27.52-73.6h-3.84a128 128 0 0 1-30.72 19.2 69.76 69.76 0 0 1-30.08 7.68V508.16a97.28 97.28 0 0 1-88.32 99.2L512 608.64a98.56 98.56 0 0 1-97.28-88.96 151.04 151.04 0 0 1 0-16v-160A188.16 188.16 0 0 0 362.24 384a21.12 21.12 0 0 1-32.64-26.88 212.48 212.48 0 0 1 34.56-33.28 103.68 103.68 0 0 1-64-45.44v-3.2A313.6 313.6 0 0 0 196.48 512z m631.04-395.52a244.48 244.48 0 0 0-3.84-43.52 147.2 147.2 0 0 0-119.68-121.6l-30.08-5.12h-46.08l-33.92 5.12a183.04 183.04 0 0 0-128 80L357.76 198.4a64 64 0 0 0-6.4 15.36 40.96 40.96 0 0 0 32.64 52.48h9.6a42.88 42.88 0 0 0 35.2-18.56c15.36-19.84 30.08-40.32 44.8-60.16l5.12-6.4V512A35.84 35.84 0 0 0 512 545.28h4.48a34.56 34.56 0 0 0 31.36-36.48v-206.72a37.76 37.76 0 0 1 0-8.96 10.88 10.88 0 0 1 9.6-7.68 9.6 9.6 0 0 1 9.6 7.04 19.2 19.2 0 0 1 0 8.32v33.28a35.2 35.2 0 0 0 15.36 30.72l12.8 6.4h19.2a35.84 35.84 0 0 0 25.6-38.4v-37.12a11.52 11.52 0 0 1 11.52-10.24c5.76 0 9.6 5.12 10.24 12.8v13.44a37.76 37.76 0 0 0 7.04 23.04 35.2 35.2 0 0 0 28.16 13.44h11.52a35.84 35.84 0 0 0 23.68-35.84v-31.36a26.24 26.24 0 0 1 0-7.04c0-5.76 3.84-8.32 9.6-9.6a11.52 11.52 0 0 1 10.24 7.04 20.48 20.48 0 0 1 0 8.96v6.4a46.08 46.08 0 0 0 3.84 18.56 33.28 33.28 0 0 0 31.36 20.48h7.04a34.56 34.56 0 0 0 27.52-36.48v-170.88z m0 0"  horiz-adv-x="1024" />
      
      <glyph glyph-name="wenbenkuang" unicode="&#58915;" d="M779.130435 684.521739H244.869565A33.391304 33.391304 0 0 1 211.478261 651.130435v-64.845913a33.391304 33.391304 0 1 1 66.782609 0V617.73913h200.058434v-467.47826h-37.487304a33.391304 33.391304 0 1 1 0-66.782609h141.801739a33.391304 33.391304 0 0 1 0 66.782609h-37.531826v467.47826H745.73913v-31.454608a33.391304 33.391304 0 1 1 66.782609 0V651.130435A33.391304 33.391304 0 0 1 779.130435 684.521739M957.217391-27.826087c0-18.409739-14.981565-33.391304-33.391304-33.391304h-823.652174c-18.409739 0-33.391304 14.981565-33.391304 33.391304v823.652174C66.782609 814.235826 81.764174 829.217391 100.173913 829.217391h823.652174c18.409739 0 33.391304-14.981565 33.391304-33.391304v-823.652174zM923.826087 896h-823.652174A100.285217 100.285217 0 0 1 0 795.826087v-823.652174C0-83.055304 44.966957-128 100.173913-128h823.652174c55.229217 0 100.173913 44.944696 100.173913 100.173913v823.652174C1024 851.055304 979.055304 896 923.826087 896z"  horiz-adv-x="1024" />
      
      <glyph glyph-name="a-iframetianjia" unicode="&#58966;" d="M704 728a8 8 0 0 0 8 8h240a8 8 0 0 0 8-8v-48a8 8 0 0 0-8-8H712a8 8 0 0 0-8 8v48zM808 576a8 8 0 0 0-8 8V824a8 8 0 0 0 8 8h48a8 8 0 0 0 8-8v-240a8 8 0 0 0-8-8h-48zM128 672h504a8 8 0 0 1 8 8v48a8 8 0 0 1-8 8H112c-26.51 0-48-21.49-48-48v-608c0-26.51 21.49-48 48-48h800c26.51 0 48 21.49 48 48V504a8 8 0 0 1-8 8h-48a8 8 0 0 1-8-8v-408H128V672zM128 576h568a8 8 0 0 0 8-8v-48a8 8 0 0 0-8-8H128v64zM320 96V544a8 8 0 0 0 8 8h48a8 8 0 0 0 8-8v-448h-64zM341 339h573a8 8 0 0 0 8-8v-48a8 8 0 0 0-8-8H341v64z"  horiz-adv-x="1024" />
      
      <glyph glyph-name="-quanbubiankuang" unicode="&#58925;" d="M874.666667-38.4h-725.333334a42.666667 42.666667 0 0 0-42.666666 42.666667v742.4a42.666667 42.666667 0 0 0 42.666666 42.666666h725.333334a42.666667 42.666667 0 0 0 42.666666-42.666666v-742.4a42.666667 42.666667 0 0 0-42.666666-42.666667z m-682.666667 85.333333h640v657.066667h-640v-657.066667z"  horiz-adv-x="1024" />
      
      <glyph glyph-name="riqishijian" unicode="&#59080;" d="M583.68 738.304v28.672c0 12.288 8.192 20.48 20.48 20.48s20.48-8.192 20.48-20.48v-28.672h163.84c57.344 0 102.4-45.056 102.4-102.4v-73.728c0-12.288-8.192-20.48-20.48-20.48s-20.48 8.192-20.48 20.48v73.728c0 34.816-26.624 61.44-61.44 61.44h-163.84v-36.864c0-12.288-8.192-20.48-20.48-20.48s-20.48 8.192-20.48 20.48v36.864h-266.24v-36.864c0-12.288-8.192-20.48-20.48-20.48s-20.48 8.192-20.48 20.48v36.864h-143.36c-34.816 0-61.44-26.624-61.44-61.44v-118.784h399.36c12.288 0 20.48-8.192 20.48-20.48s-8.192-20.48-20.48-20.48H71.68v-393.216c0-34.816 26.624-61.44 61.44-61.44h337.92c12.288 0 20.48-8.192 20.48-20.48s-8.192-20.48-20.48-20.48H133.12c-57.344 0-102.4 45.056-102.4 102.4v552.96c0 57.344 45.056 102.4 102.4 102.4h143.36v28.672c0 12.288 8.192 20.48 20.48 20.48s20.48-8.192 20.48-20.48v-28.672h266.24z m374.784-626.688c-6.144-10.24-18.432-14.336-28.672-8.192-10.24 6.144-14.336 18.432-8.192 28.672 63.488 114.688 22.528 258.048-92.16 319.488-114.688 63.488-258.048 22.528-319.488-92.16s-22.528-258.048 92.16-319.488c81.92-45.056 182.272-36.864 256 18.432 8.192 6.144 22.528 4.096 28.672-4.096 6.144-8.192 4.096-22.528-4.096-28.672-86.016-65.536-204.8-73.728-301.056-20.48-133.12 73.728-182.272 241.664-108.544 376.832s241.664 182.272 376.832 108.544c135.168-77.824 182.272-245.76 108.544-378.88z m-231.424 319.488v-184.32l167.936-36.864c10.24-2.048 18.432-14.336 16.384-24.576s-14.336-18.432-24.576-16.384l-200.704 45.056v217.088c0 12.288 8.192 20.48 20.48 20.48s20.48-8.192 20.48-20.48z m-518.144-94.208c34.816 8.192 61.44 24.576 79.872 49.152h24.576V128h-43.008v196.608c-14.336-10.24-34.816-18.432-61.44-22.528v34.816z"  horiz-adv-x="1024" />
      
      <glyph glyph-name="xingbiao" unicode="&#58895;" d="M761.2-46.8c-8.9 0-17.9 1.8-26.5 5.4l-220.7 93-220.7-93c-22.1-9.3-46.8-6.4-66.2 7.6-19.4 14.1-29.8 36.7-27.7 60.6l20.2 238.7L62.9 446.8c-15.7 18.1-20.6 42.5-13.2 65.3 7.4 22.8 25.7 39.6 49.1 45.1L332 611.7l123.9 205c12.4 20.5 34.1 32.7 58 32.7 24 0 45.7-12.2 58.1-32.7l123.9-205 233.2-54.5c23.3-5.5 41.7-22.3 49.1-45.1 7.4-22.8 2.5-47.2-13.2-65.3L808.4 265.6l20.2-238.7c2-23.9-8.3-46.5-27.7-60.6-11.8-8.6-25.7-13-39.7-13.1zM146.4 480.7L289 315.8c11.9-13.7 17.8-32 16.3-50.1l-18.4-217.2 200.8 84.6c16.8 7 35.9 7 52.6 0l200.9-84.6-18.4 217.2c-1.5 18.1 4.4 36.4 16.3 50.1l142.5 164.9-212.2 49.6c-17.7 4.1-33.2 15.4-42.6 31L514 747.7 401.2 561.2c-9.4-15.6-24.9-26.8-42.6-31l-212.2-49.5z m553.3 124.7h0.2-0.2z"  horiz-adv-x="1024" />
      
      <glyph glyph-name="wenben" unicode="&#58953;" d="M692.2597343921661 13.21142578125H331.711297750473v30.689996480941772a563.3140236139297 563.3140236139297 0 0 0 48.088091611862176 14.83154296875c16.200274229049683 4.278552532196046 33.656305074691765 7.757592201232912 52.39561200141907 10.638445615768433v630.340576171875h-136.73552870750427l-57.244107127189636-151.53810381889343H211.2339789867401c-2.1675199270248413 14.118209481239319-3.9642512798309326 30.233752727508545-5.419161915779114 48.23148250579833-1.4541864395141602 17.939794063568115-2.6809751987457275 36.30831241607666-3.7933409214019784 55.10410666465761-1.1123657226562498 18.59736442565918-1.9683659076690674 37.078857421875-2.6527315378189087 55.019375681877136C198.6264432668686 724.469366312027 198.2563788890838 740.6413968801498 198.2563788890838 754.78857421875h627.4886906147003c0-14.147177338600159-0.3997564315795899-30.090361833572388-1.1123657226562498-47.689059376716614-0.7415771484374999-17.655909061431885-1.6547888517379765-35.852792859077454-2.766430377960205-54.56313192844391s-2.139276266098023-37.078857421875-3.251641988754273-55.10410666465761c-1.0841220617294314-17.998453974723816-2.7099430561065674-34.48406159877777-4.9064308404922485-49.28736090660096h-28.408053517341607l-56.75889551639557 151.53810381889343H592.8891206979752V69.31492352485657c18.71033906936645-3.5659432411193848 36.22285723686218-7.07395076751709 52.366644144058235-10.638445615768433 16.229242086410522-3.508731722831726 31.85957372188568-8.415162563323973 47.00469374656678-14.83154296875v-30.633509159088135z"  horiz-adv-x="1024" />
      
      <glyph glyph-name="wushuju" unicode="&#58946;" d="M156.662278 196.241827h21.097186A10.444152 10.444152 0 0 0 187.994733 185.797675c0-5.765172-4.490985-10.444152-10.235269-10.444152H156.662278v-21.097186A10.444152 10.444152 0 0 0 146.218126 144.021068a10.277045 10.277045 0 0 0-10.444152 10.235269V175.353523H114.676787A10.444152 10.444152 0 0 0 104.441518 185.797675c0 5.765172 4.490985 10.444152 10.235269 10.444152H135.773974v21.097187A10.444152 10.444152 0 0 0 146.218126 227.574283c5.765172 0 10.444152-4.490985 10.444152-10.235269v-21.097187z m1378.628042 83.553215v21.097186A10.277045 10.277045 0 0 1 1524.846168 311.127497a10.444152 10.444152 0 0 1-10.444152-10.235269v-21.097186h-21.097186a10.277045 10.277045 0 0 1-10.235269-10.444152c0-5.598065 4.595427-10.444152 10.235269-10.444152h21.097186v-21.097187c0-5.744284 4.67898-10.235269 10.444152-10.235268a10.444152 10.444152 0 0 1 10.444152 10.235268V258.906738h21.097187c5.744284 0 10.235269 4.67898 10.235268 10.444152a10.444152 10.444152 0 0 1-10.235268 10.444152H1535.29032zM776.460024-64.861969H250.596979A20.80475 20.80475 0 0 0 229.77134-43.973665c0 11.530344 9.462402 20.888304 20.825639 20.888303h94.728457A83.010119 83.010119 0 0 0 334.212859 18.586804v605.96969A83.49055 83.49055 0 0 0 417.849627 708.005267H480.430984V728.998012A83.49055 83.49055 0 0 0 564.067752 812.446785h501.152182A83.448773 83.448773 0 0 0 1148.856702 728.998012v-605.969689c0-15.185797-4.052331-29.410732-11.133466-41.672166h115.554096c11.551232 0 20.909192-9.274407 20.909192-20.888304 0-11.530344-9.295295-20.888304-20.888304-20.888304H1002.638576v-20.992745c0-15.185797-4.052331-29.410732-11.133466-41.672166h11.196131c11.488567 0 20.825639-9.274407 20.825639-20.888303 0-11.530344-9.462402-20.888304-20.825639-20.888304h-109.893365c9.545955-16.000441 7.478013-36.972297-6.41271-50.863019a41.672166 41.672166 0 0 0-59.072122 0L776.460024-64.861969z m76.367638 41.776607h66.424806c22.977134 0 41.609501 18.59059 41.609501 41.881049V625.538244c0 22.559368-18.047494 40.690416-40.314426 40.690416H416.303892c-22.266932 0-40.314426-18.214601-40.314426-40.690416v-606.742557c0-23.123352 18.799473-41.881049 41.588613-41.881049h317.084449l-10.736588 10.757477a41.693054 41.693054 0 0 0-10.861918 40.377091l-19.718558 19.739447A146.259902 146.259902 0 0 0 502.363703 268.306475a146.218126 146.218126 0 0 0 220.517822-190.981761l19.739447-19.739447a41.630389 41.630389 0 0 0 40.377091-10.841029L852.827662-23.085362zM1002.638576 81.356157h62.852906A41.797496 41.797496 0 0 1 1107.080095 123.132764V728.893571c0 23.14424-18.632367 41.776607-41.588613 41.776607H563.775316A41.797496 41.797496 0 0 1 522.207592 728.893571v-20.888304h396.794216A83.448773 83.448773 0 0 0 1002.638576 624.556494V81.356157zM266.325872 849.001317h31.123572c8.773088 0 15.875111-6.955805 15.875111-15.666228 0-8.647758-7.102023-15.666228-15.875111-15.666228h-31.123572v-31.123572c0-8.773088-6.955805-15.875111-15.666228-15.875111a15.770669 15.770669 0 0 0-15.666228 15.875111V817.668861H203.869844A15.728893 15.728893 0 0 0 187.994733 833.335089c0 8.647758 7.102023 15.666228 15.875111 15.666228h31.123572V880.124889c0 8.773088 6.955805 15.875111 15.666228 15.875111 8.647758 0 15.666228-7.102023 15.666228-15.875111v-31.123572zM20.888304-43.973665c0 11.530344 9.462402 20.888304 20.825638 20.888303h125.455152c11.488567 0 20.825639-9.274407 20.825639-20.888303 0-11.530344-9.462402-20.888304-20.825639-20.888304H41.713942A20.80475 20.80475 0 0 0 20.888304-43.973665z m658.733544 135.021995a104.441518 104.441518 0 1 1-147.722083 147.722083 104.441518 104.441518 0 0 1 147.722083-147.722083zM459.542681 582.675445a20.888304 20.888304 0 0 0 20.867415 20.888304H710.202325a20.888304 20.888304 0 1 0 0-41.776608H480.430984A20.825639 20.825639 0 0 0 459.542681 582.675445z m0-104.441518c0 11.530344 9.295295 20.888304 20.742085 20.888303h334.505295c11.44679 0 20.742086-9.274407 20.742086-20.888303 0-11.530344-9.295295-20.888304-20.742086-20.888304H480.284766A20.762974 20.762974 0 0 0 459.542681 478.233927z m0-104.441519c0 11.530344 9.316183 20.888304 20.846527 20.888304h146.301679c11.509455 0 20.846527-9.274407 20.846527-20.888304 0-11.530344-9.316183-20.888304-20.846527-20.888303h-146.301679A20.80475 20.80475 0 0 0 459.542681 373.792408zM62.664911 499.12223a62.664911 62.664911 0 1 0 0 125.329822 62.664911 62.664911 0 0 0 0-125.329822z m0 31.332456a31.332456 31.332456 0 1 1 0 62.664911 31.332456 31.332456 0 0 1 0-62.664911zM1357.739739 624.452052a62.664911 62.664911 0 1 0 0 125.329822 62.664911 62.664911 0 0 0 0-125.329822z m0 31.332456a31.332456 31.332456 0 1 1 0 62.664911 31.332456 31.332456 0 0 1 0-62.664911z"  horiz-adv-x="1567" />
      
      <glyph glyph-name="ziyuan" unicode="&#58897;" d="M423.449389 49.74287800000002a423.122426 423.122426 0 1 0 422.807837 422.807837 423.437016 423.437016 0 0 0-422.807837-422.807837z m0 751.553514a328.745677 328.745677 0 1 1 328.431088-328.745677A329.060266 329.060266 0 0 1 423.449389 801.296392zM624.062899 205.33867899999996l66.755821 66.692903L1024.000104-61.14980300000002l-66.724361-66.692902zM365.564983 646.203934h115.768812v-346.991848h-115.768812zM596.788019 530.435122v-115.768813H249.79617v115.768813z"  horiz-adv-x="1024" />
      
      <glyph glyph-name="danxuan" unicode="&#58914;" d="M512 384m-192 0a192 192 0 1 1 384 0 192 192 0 1 1-384 0ZM512-128C230.4-128 0 102.4 0 384S230.4 896 512 896s512-230.4 512-512-230.4-512-512-512z m0 981.333333C253.866667 853.333333 42.666667 642.133333 42.666667 384s211.2-469.333333 469.333333-469.333333 469.333333 211.2 469.333333 469.333333S770.133333 853.333333 512 853.333333z"  horiz-adv-x="1024" />
      
      <glyph glyph-name="shouyelunbotu" unicode="&#58920;" d="M244.5 120.5s36.7 223 109.7 223c73.1 0 64.4-62.3 119.3-62.3 55 0 77.7 192 151.5 192s156.6-352.8 156.6-352.8H244.5z m111.9 442.3c37.1 0 67.1-30 67.1-67.2s-30-67.2-67.1-67.2c-37.1 0-67.1 30-67.1 67.2s30 67.2 67.1 67.2z m425.1 134.3h-537c-24.7 0-44.8-20.1-44.8-44.8V115c0-24.8 20.1-44.8 44.8-44.8h537.1c24.7 0 44.8 20 44.8 44.8V652.3c-0.1 24.7-20.1 44.8-44.9 44.8zM871 562.8h45.1c24.6 0 44.4-20.3 44.4-44.6v-268.9c0-24.7-20.4-44.6-44.4-44.6H871V562.8z m-716 0h-45.1c-24 0-44.4-20-44.4-44.6v-268.9c0-24.4 19.9-44.6 44.4-44.6H155V562.8z"  horiz-adv-x="1024" />
      
      <glyph glyph-name="ditu" unicode="&#58975;" d="M883.2 411.4944a38.4 38.4 0 0 1 0-76.8c34.7136 0 64-24.576 64-53.76v-276.48c0-29.1328-29.2864-53.76-64-53.76H140.8c-34.7136 0-64 24.576-64 53.76v276.48c0 29.1328 29.2864 53.76 64 53.76a38.4 38.4 0 0 1 0 76.8c-77.6704 0-140.8-58.5728-140.8-130.56v-276.48c0-71.9872 63.1296-130.56 140.8-130.56h742.4c77.6704 0 140.8 58.5728 140.8 130.56v276.48c0 71.9872-63.1808 130.56-140.8 130.56zM512 34.304a38.4 38.4 0 0 1 29.696 14.0288c29.7984 36.352 291.2256 359.7824 291.2256 524.8a38.4 38.4 0 0 1-76.8 0c0-103.5776-155.904-325.4272-244.1728-438.8352C423.68 247.7056 267.776 469.5552 267.776 573.1328a244.48 244.48 0 0 0 244.1728 244.1728c69.4784 0 135.936-29.7472 182.272-81.664a38.4 38.4 0 0 1 57.344 51.0976A321.28 321.28 0 0 1 512 894.1056a321.3824 321.3824 0 0 1-320.9728-320.9728c0-165.0176 261.4272-488.448 291.2256-524.8a38.4512 38.4512 0 0 1 29.7472-14.0288zM346.2656 572.5696a165.888 165.888 0 0 1 165.6832-165.6832 165.888 165.888 0 0 1 165.7344 165.6832A165.888 165.888 0 0 1 511.9488 738.304a165.888 165.888 0 0 1-165.6832-165.7344z m254.6688 0c0-48.9984-39.8848-88.8832-88.9344-88.8832a88.9856 88.9856 0 0 0-88.8832 88.8832c0 49.0496 39.8848 88.9344 88.8832 88.9344a88.9856 88.9856 0 0 0 88.9344-88.9344z"  horiz-adv-x="1024" />
      
      <glyph glyph-name="colum-height" unicode="&#59169;" d="M886.857143 13.714286H137.142857c-5.028571 0-9.142857-4.114286-9.142857-9.142857v-68.571429c0-5.028571 4.114286-9.142857 9.142857-9.142857h749.714286c5.028571 0 9.142857 4.114286 9.142857 9.142857v68.571429c0 5.028571-4.114286 9.142857-9.142857 9.142857z m0 827.428571H137.142857c-5.028571 0-9.142857-4.114286-9.142857-9.142857v-68.571429c0-5.028571 4.114286-9.142857 9.142857-9.142857h749.714286c5.028571 0 9.142857 4.114286 9.142857 9.142857v68.571429c0 5.028571-4.114286 9.142857-9.142857 9.142857zM624.914286 537.142857c6.857143 0 10.742857 8 6.514285 13.371429L516.228571 696.342857a8.16 8.16 0 0 1-12.914285 0L388.114286 550.514286a8.262857 8.262857 0 0 1 6.514285-13.371429H470.857143v-306.285714h-71.771429c-6.857143 0-10.742857-8-6.514285-13.371429l115.2-145.714285c3.314286-4.228571 9.714286-4.228571 12.914285 0l115.2 145.714285c4.228571 5.371429 0.457143 13.371429-6.514285 13.371429H553.142857V537.142857h71.771429z"  horiz-adv-x="1024" />
      
      <glyph glyph-name="column-width" unicode="&#59172;" d="M132.571429 768h-68.571429c-5.028571 0-9.142857-4.114286-9.142857-9.142857v-749.714286c0-5.028571 4.114286-9.142857 9.142857-9.142857h68.571429c5.028571 0 9.142857 4.114286 9.142857 9.142857V758.857143c0 5.028571-4.114286 9.142857-9.142857 9.142857z m827.428571 0h-68.571429c-5.028571 0-9.142857-4.114286-9.142857-9.142857v-749.714286c0-5.028571 4.114286-9.142857 9.142857-9.142857h68.571429c5.028571 0 9.142857 4.114286 9.142857 9.142857V758.857143c0 5.028571-4.114286 9.142857-9.142857 9.142857zM824.342857 392.8L678.514286 507.885714a8.262857 8.262857 0 0 1-13.371429-6.514285V425.142857H358.857143v71.771429c0 6.857143-8 10.742857-13.371429 6.514285L199.657143 388.228571a8.16 8.16 0 0 1 0-12.914285l145.714286-115.2c5.371429-4.228571 13.371429-0.457143 13.371428 6.514285V342.857143h306.285714v-71.771429c0-6.857143 8-10.742857 13.371429-6.514285l145.714286 115.2c4.342857 3.314286 4.342857 9.714286 0.228571 13.028571z"  horiz-adv-x="1024" />
      
      <glyph glyph-name="shangduiqi" unicode="&#58993;" d="M0 831.996839v-896.002709c0-35.338559 28.653764-63.992324 64.001355-63.992324 35.349396 0 64.001355 28.651958 64.001354 63.992324V831.996839C128.000903 867.348042 99.350751 896 64.001355 896 28.653764 896 0 867.348042 0 831.996839zM895.995484 832.009483v-640.006322c0-35.338559 28.650152-63.992324 64.001355-63.992324 35.336753 0 64.001355 28.651958 64.001355 63.992324V832.009483C1023.996388 867.348042 995.333592 896 959.995033 896c-35.349396 0-63.999548-28.651958-63.999549-63.990517zM296.955882 832.009483v-640.006322c0-35.338559 28.653764-63.992324 64.004967-63.992324 35.345784 0 64.001355 28.651958 64.001355 63.992324V832.009483C424.960397 867.348042 396.306633 896 360.960849 896c-35.351203 0-64.004967-28.651958-64.004967-63.990517zM599.034184 831.996839v-896.002709c0-35.338559 28.653764-63.992324 64.004967-63.992324 35.336753 0 64.001355 28.651958 64.001355 63.992324V831.996839C727.0387 867.348042 698.375904 896 663.039151 896c-35.349396 0-64.004967-28.651958-64.004967-64.003161z"  horiz-adv-x="1024" />
      
      <glyph glyph-name="xiaduiqi" unicode="&#58995;" d="M0 831.996613v-896.00587c0-35.338684 28.653866-63.990743 64.00158-63.990743 35.351327 0 64.00158 28.652059 64.001581 63.990743V831.996613C128.001355 867.346134 99.351102 896 64.00158 896 28.653866 896 0 867.346134 0 831.996613zM895.998645 575.999323v-640.00858c0-35.338684 28.650253-63.990743 64.001581-63.990743 35.336878 0 64.00158 28.652059 64.00158 63.990743V575.999323c0 35.338684-28.664703 63.990743-64.00158 63.990743-35.351327 0.001806-64.00158-28.652059-64.001581-63.990743zM296.956929 575.999323v-640.00858c0-35.338684 28.653866-63.990743 64.005193-63.990743 35.345909 0 64.00158 28.652059 64.001581 63.990743V575.999323c0 35.338684-28.653866 63.990743-64.001581 63.990743-35.351327 0.001806-64.005193-28.652059-64.005193-63.990743zM599.038103 831.996613v-896.00587c0-35.338684 28.653866-63.990743 64.003387-63.990743 35.336878 0 64.00158 28.652059 64.001581 63.990743V831.996613C727.041264 867.346134 698.378368 896 663.04149 896c-35.349521 0-64.003387-28.653866-64.003387-64.003387z"  horiz-adv-x="1024" />
      
      <glyph glyph-name="a-ziyuan13" unicode="&#58986;" d="M1152 426.666667H42.666667a42.666667 42.666667 0 0 1 0-85.333334h1109.333333a42.666667 42.666667 0 0 1 0 85.333334zM42.666667 810.666667h256A42.666667 42.666667 0 0 1 341.333333 853.333333a42.666667 42.666667 0 0 1-42.666666 42.666667h-256a42.666667 42.666667 0 0 1-42.666667-42.666667 42.666667 42.666667 0 0 1 42.666667-42.666666zM128-42.66666699999996h-85.333333a42.666667 42.666667 0 0 1 0-85.333333h85.333333a42.666667 42.666667 0 0 1 0 85.333333zM469.333333 810.666667h256A42.666667 42.666667 0 0 1 768 853.333333a42.666667 42.666667 0 0 1-42.666667 42.666667h-256a42.666667 42.666667 0 0 1-42.666666-42.666667 42.666667 42.666667 0 0 1 42.666666-42.666666zM384-42.66666699999996h-85.333333a42.666667 42.666667 0 0 1 0-85.333333h85.333333a42.666667 42.666667 0 0 1 0 85.333333zM640-42.66666699999996h-85.333333a42.666667 42.666667 0 0 1 0-85.333333h85.333333a42.666667 42.666667 0 0 1 0 85.333333zM896-42.66666699999996h-85.333333a42.666667 42.666667 0 0 1 0-85.333333h85.333333a42.666667 42.666667 0 0 1 0 85.333333zM1152-42.66666699999996h-85.333333a42.666667 42.666667 0 0 1 0-85.333333h85.333333a42.666667 42.666667 0 0 1 0 85.333333zM896 810.666667h256a42.666667 42.666667 0 0 1 42.666667 42.666666 42.666667 42.666667 0 0 1-42.666667 42.666667h-256a42.666667 42.666667 0 0 1-42.666667-42.666667 42.666667 42.666667 0 0 1 42.666667-42.666666z"  horiz-adv-x="1194" />
      
      <glyph glyph-name="liebiao" unicode="&#58880;" d="M187.392 825.344q28.672 0 48.64-19.456t19.968-48.128l0-52.224q0-28.672-19.968-48.64t-48.64-19.968l-54.272 0q-27.648 0-47.616 19.968t-19.968 48.64l0 52.224q0 28.672 19.968 48.128t47.616 19.456l54.272 0zM889.856 825.344q27.648 0 47.616-19.456t19.968-48.128l0-52.224q0-28.672-19.968-48.64t-47.616-19.968l-437.248 0q-28.672 0-48.64 19.968t-19.968 48.64l0 52.224q0 28.672 19.968 48.128t48.64 19.456l437.248 0zM187.392 506.88q28.672 0 48.64-19.968t19.968-48.64l0-52.224q0-27.648-19.968-47.616t-48.64-19.968l-54.272 0q-27.648 0-47.616 19.968t-19.968 47.616l0 52.224q0 28.672 19.968 48.64t47.616 19.968l54.272 0zM889.856 506.88q27.648 0 47.616-19.968t19.968-48.64l0-52.224q0-27.648-19.968-47.616t-47.616-19.968l-437.248 0q-28.672 0-48.64 19.968t-19.968 47.616l0 52.224q0 28.672 19.968 48.64t48.64 19.968l437.248 0zM187.392 187.392q28.672 0 48.64-19.968t19.968-47.616l0-52.224q0-28.672-19.968-48.64t-48.64-19.968l-54.272 0q-27.648 0-47.616 19.968t-19.968 48.64l0 52.224q0 27.648 19.968 47.616t47.616 19.968l54.272 0zM889.856 187.392q27.648 0 47.616-19.968t19.968-47.616l0-52.224q0-28.672-19.968-48.64t-47.616-19.968l-437.248 0q-28.672 0-48.64 19.968t-19.968 48.64l0 52.224q0 27.648 19.968 47.616t48.64 19.968l437.248 0z"  horiz-adv-x="1024" />
      
      <glyph glyph-name="kuangjiaframe23" unicode="&#59007;" d="M977.454545-81.454545 884.363636-81.454545 884.363636-128 1024-128 1024 11.636364 977.454545 11.636364ZM1024 896 884.363636 896 884.363636 849.454545 977.454545 849.454545 977.454545 756.363636 1024 756.363636ZM0-128 139.636364-128 139.636364-81.454545 46.545455-81.454545 46.545455 11.636364 0 11.636364ZM93.090909-34.909091l837.818182 0L930.909091 802.909091 93.090909 802.909091 93.090909-34.909091zM139.636364 756.363636l744.727273 0 0-744.727273L139.636364 11.636364 139.636364 756.363636zM0 756.363636 46.545455 756.363636 46.545455 849.454545 139.636364 849.454545 139.636364 896 0 896Z"  horiz-adv-x="1024" />
      
      <glyph glyph-name="shijian" unicode="&#58981;" d="M827.871087 699.871087C743.498468 784.243707 631.321596 830.709995 512 830.709995c-119.319549 0-231.499491-46.465265-315.871087-130.837884S65.290005 503.319549 65.290005 384s46.465265-231.499491 130.837884-315.871087 196.551538-130.837884 315.871087-130.837884c119.321596 0 231.499491 46.465265 315.871087 130.837884S958.708971 264.680451 958.708971 384 912.243707 615.499491 827.871087 699.871087zM531.556405-21.246651l0 74.145697c0 11.31572-9.174963 20.491707-20.491707 20.491707-11.316743 0-20.491707-9.174963-20.491707-20.491707l0-74.059739C283.276738-10.322857 116.693746 156.835234 106.755396 364.365824l72.351841 0c11.31572 0 20.491707 9.174963 20.491707 20.491707 0 11.31572-9.174963 20.491707-20.491707 20.491707l-72.273047 0c10.769274 206.737528 177.01253 373.005342 383.740848 383.813502l0-72.346725c0-11.316743 9.174963-20.491707 20.491707-20.491707 11.31572 0 20.491707 9.17394 20.491707 20.491707L531.558451 789.247674c207.593012-9.901511 374.807385-176.539762 385.609405-383.89946l-74.142627 0c-11.316743 0-20.491707-9.174963-20.491707-20.491707 0-11.316743 9.174963-20.491707 20.491707-20.491707l74.220399 0C907.275555 156.21204 739.720422-11.317511 531.556405-21.246651zM532.098757 392.881274 532.098757 637.759471c0 11.316743-9.174963 20.491707-20.491707 20.491707-11.31572 0-20.491707-9.17394-20.491707-20.491707l0-254.66612c0-7.858992 4.429893-14.677281 10.924817-18.114566L693.447539 173.57243c4.002151-4.000104 9.245572-6.001691 14.490016-6.001691s10.487865 2.001587 14.490016 6.001691c8.002254 8.002254 8.002254 20.977777 0 28.980032L532.098757 392.881274z"  horiz-adv-x="1024" />
      
      <glyph glyph-name="quanping" unicode="&#59104;" d="M674.414 501.356l253.292 252.418-0.868-143.044c-0.348-11.864 9.244-22.327 21.106-21.979h15.177c11.864 0.349 21.804 7.326 21.979 19.364l0.699 212.995c0 0.175 0.348 11.338 0.348 11.338 0.175 5.929-1.222 11.338-5.060 15.177-3.838 3.838-9.067 6.279-15.177 6.106l-10.816-0.175c-0.174 0-0.344 0-0.52-0.175l-211.252 0.875c-11.864-0.349-21.804-10.122-21.979-22.156v-15.177c1.747-14.129 12.907-22.329 24.77-21.979l139.205-0.349-252.593-251.549c-11.514-11.514-11.514-30.177 0-41.689 11.514-11.688 30.18-11.688 41.693 0h-0.004zM355.18 263.415l-253.465-251.551 0.873 142.352c0.349 11.859-9.248 22.323-21.11 21.979h-16.046c-11.864-0.349-21.804-7.327-21.979-19.365l-0.699-213.17c0-0.175-0.348-11.338-0.348-11.338-0.175-5.936 1.222-11.338 5.055-15.177 3.838-3.838 9.073-6.279 15.177-6.106l10.815 0.175c0.175 0 0.349 0 0.525 0.175l212.125-0.874c11.859 0.349 21.804 10.117 21.979 22.156v15.176c-1.746 14.129-12.91 22.329-24.775 21.979l-139.206 0.349 252.419 251.543c11.514 11.514 11.514 30.181 0 41.693-11.334 11.688-29.824 11.688-41.34-0.001v0zM985.799-56.339l-0.524 213.17c-0.349 11.865-10.122 19.016-21.98 19.365h-15.176c-11.865 0.344-21.283-10.122-21.111-21.979l0.874-143.049-253.466 252.247c-11.514 11.514-30.18 11.514-41.693 0-11.509-11.513-11.509-30.18 0-41.693l252.422-251.542-139.205-0.349c-11.864 0.349-22.852-8.024-24.774-21.979v-15.177c0.348-11.864 10.122-21.804 21.979-22.156l211.253 0.874c0.174 0 0.348-0.175 0.524-0.175l10.816-0.175c5.928-0.174 11.338 2.093 15.176 6.106 3.838 3.838 5.232 9.243 5.056 15.177 0 0-0.175 11.164-0.175 11.338h0.005zM144.282 794.593l139.205 0.349c11.859-0.349 22.848 8.024 24.77 21.979v15.179c-0.349 11.864-10.117 21.804-21.979 22.156l-212.296-0.874c-0.175 0-0.349 0.175-0.525 0.175l-10.814 0.175c-5.936 0.174-11.338-2.093-15.177-6.106-3.838-3.838-5.237-9.243-5.055-15.177 0 0 0.348-11.164 0.348-11.338l0.52-213.17c0.175-11.86 10.122-19.016 21.979-19.36h16.051c11.864-0.348 21.282 10.117 21.105 21.979l-0.698 142.346 253.296-251.725c11.508-11.514 30.176-11.514 41.688 0 11.514 11.514 11.514 30.18 0 41.693l-252.419 251.716zM144.282 794.593z"  horiz-adv-x="1024" />
      
      <glyph glyph-name="mubiaoyemianliebiao" unicode="&#58893;" d="M918.648471 896 737.822118 896 737.581176 895.759059C737.460706 895.759059 737.340235 895.819294 737.219765 895.819294 720.293647 895.819294 706.319059 884.013176 703.789176 868.713412L703.488 868.472471C694.332235 830.584471 681.140706 780.950588 638.192941 780.950588L367.134118 780.950588C324.788706 780.950588 312.079059 829.921882 302.320941 867.026824 300.694588 882.386824 287.683765 894.373647 271.299765 895.578353L270.878118 896 105.411765 896C80.474353 896 60.235294 876.905412 60.235294 853.353412L60.235294-85.353412C60.235294-108.905412 80.474353-128 105.411765-128L918.588235-128C943.525647-128 963.764706-108.905412 963.764706-85.353412L963.764706 853.353412C963.824941 876.905412 943.525647 896 918.648471 896L918.648471 896 918.648471 896ZM918.648471-85.353412 105.411765-85.353412 105.411765 853.353412 259.493647 853.353412C270.516706 811.550118 291.478588 738.304 367.254588 738.304L638.313412 738.304C714.691765 738.304 736.195765 812.513882 746.194824 853.353412L918.588235 853.353412 918.588235-85.353412 918.648471-85.353412 918.648471-85.353412 918.648471-85.353412ZM398.998588 853.232941 625.061647 853.232941C637.590588 853.232941 647.649882 862.750118 647.649882 874.556235 647.649882 886.302118 637.590588 895.879529 625.061647 895.879529L398.998588 895.879529C386.529882 895.879529 376.410353 886.302118 376.410353 874.556235 376.410353 862.750118 386.529882 853.232941 398.998588 853.232941L398.998588 853.232941 398.998588 853.232941ZM204.257882 531.937882C204.257882 520.131765 214.377412 510.614588 226.846118 510.614588L803.117176 510.614588C815.585882 510.614588 825.705412 520.131765 825.705412 531.937882 825.705412 543.683765 815.585882 553.261176 803.117176 553.261176L226.846118 553.261176C214.377412 553.261176 204.257882 543.683765 204.257882 531.937882L204.257882 531.937882 204.257882 531.937882ZM803.117176 349.304471 226.846118 349.304471C214.377412 349.304471 204.257882 339.787294 204.257882 327.981176 204.257882 316.175059 214.377412 306.657882 226.846118 306.657882L803.117176 306.657882C815.585882 306.657882 825.705412 316.175059 825.705412 327.981176 825.705412 339.787294 815.585882 349.304471 803.117176 349.304471L803.117176 349.304471 803.117176 349.304471ZM803.117176 146.853647 226.846118 146.853647C214.377412 146.853647 204.257882 137.336471 204.257882 125.530353 204.257882 113.724235 214.377412 104.207059 226.846118 104.207059L803.117176 104.207059C815.585882 104.207059 825.705412 113.724235 825.705412 125.530353 825.705412 137.336471 815.585882 146.853647 803.117176 146.853647L803.117176 146.853647 803.117176 146.853647Z"  horiz-adv-x="1024" />
      
      <glyph glyph-name="chakantiezishipin" unicode="&#58973;" d="M512 896c-282.767101 0-512-229.234225-512-512 0-282.771077 229.232899-512.001325 512-512.001325 282.771077 0 512 229.228923 512 512.001325C1023.998675 666.765775 794.771077 896 512 896L512 896zM512-56.143444c-243.08435 0-440.138142 197.059093-440.138142 440.144769 0 243.08435 197.053791 440.138142 440.138142 440.138142S952.142118 627.08435 952.142118 384C952.142118 140.91565 755.083025-56.143444 512-56.143444L512-56.143444zM512-56.143444M318.448174 451.617615c5.329826 0 10.550962 2.163212 14.327305 5.936904 3.769715 3.772366 5.928951 8.993502 5.928951 14.325979 0 5.332477-2.159236 10.553613-5.928951 14.325979-3.772366 3.769715-8.996153 5.934253-14.331281 5.934253-5.331152 0-10.552287-2.163212-14.323328-5.934253-3.769715-3.772366-5.934253-8.993502-5.934253-14.325979 0-5.331152 2.164538-10.552287 5.934253-14.325979C307.895886 453.780827 313.115696 451.617615 318.448174 451.617615L318.448174 451.617615zM318.448174 451.617615M776.9206 533.700386c-6.326601 3.96854-13.563818 5.980646-21.512828 5.980646-7.852248 0-15.907298-1.967039-23.939814-5.852072l-110.391426-53.31682L621.076532 499.294442c0 35.191964-28.634727 63.826691-63.829342 63.826691l-266.223564 0c-35.191964 0-63.826691-28.634727-63.826691-63.826691l0-230.587558c0-35.197266 28.634727-63.826691 63.826691-63.826691l266.228866 0c35.19329 0 63.82404 28.630751 63.82404 63.826691l0 18.674937 110.427214-53.803278c8.070956-3.931426 16.169747-5.928951 24.075015-5.928951 7.903943 0 15.089466 1.993549 21.357745 5.923649 12.62404 7.909245 19.86656 22.801212 19.86656 40.853165L796.803065 492.823362C796.803065 510.86206 789.556569 525.76198 776.9206 533.700386L776.9206 533.700386zM767.358459 492.823362l0-218.400932c0-7.568592-2.258648-13.50152-6.034991-15.868859-1.561436-0.966288-3.513894-1.456722-5.809656-1.456722-3.285909 0-7.131178 1.023284-11.120926 2.966464l-123.317679 60.086137L621.075206 447.828017l123.189106 59.488337c3.983121 1.919321 7.825738 2.932001 11.114298 2.932001 2.334201 0 4.310519-0.499713 5.882559-1.489859C765.136925 506.331509 767.358459 500.523178 767.358459 492.823362L767.358459 492.823362zM256.640215 499.294442c0 18.958594 15.42084 34.383411 34.38076 34.383411l266.228866 0c18.959919 0 34.383411-15.424817 34.383411-34.383411l0-230.587558c0-18.961245-15.424817-34.383411-34.383411-34.383411l-266.228866 0c-18.958594 0-34.38076 15.423491-34.38076 34.383411L256.640215 499.294442 256.640215 499.294442zM256.640215 499.294442"  horiz-adv-x="1024" />
      
      <glyph glyph-name="loading" unicode="&#59645;" d="M512 682.666667c-25.6 0-42.666667 17.066667-42.666667 42.666667L469.333333 853.333333c0 25.6 17.066667 42.666667 42.666667 42.666667s42.666667-17.066667 42.666667-42.666667l0-128C554.666667 699.733333 537.6 682.666667 512 682.666667zM512-128c-25.6 0-42.666667 17.066667-42.666667 42.666667l0 128c0 25.6 17.066667 42.666667 42.666667 42.666667s42.666667-17.066667 42.666667-42.666667l0-128C554.666667-110.933333 537.6-128 512-128zM170.666667 341.333333 42.666667 341.333333c-25.6 0-42.666667 17.066667-42.666667 42.666667s17.066667 42.666667 42.666667 42.666667l128 0c25.6 0 42.666667-17.066667 42.666667-42.666667S196.266667 341.333333 170.666667 341.333333zM981.333333 341.333333l-128 0c-25.6 0-42.666667 17.066667-42.666667 42.666667s17.066667 42.666667 42.666667 42.666667l128 0c25.6 0 42.666667-17.066667 42.666667-42.666667S1006.933333 341.333333 981.333333 341.333333zM806.4 512c-12.8 0-29.866667 8.533333-38.4 21.333333-12.8 21.333333-4.266667 46.933333 17.066667 59.733333L896 657.066667c21.333333 12.8 46.933333 4.266667 59.733333-17.066667 12.8-21.333333 4.266667-46.933333-17.066667-59.733333l-110.933333-64C823.466667 512 814.933333 512 806.4 512zM106.666667 106.666667c-12.8 0-29.866667 8.533333-38.4 21.333333-12.8 21.333333-4.266667 46.933333 17.066667 59.733333l110.933333 64c21.333333 12.8 46.933333 4.266667 59.733333-17.066667 12.8-21.333333 4.266667-46.933333-17.066667-59.733333L128 110.933333C119.466667 106.666667 110.933333 106.666667 106.666667 106.666667zM682.666667 635.733333c-8.533333 0-12.8 0-21.333333 4.266667-21.333333 12.8-25.6 38.4-17.066667 59.733333L708.266667 810.666667c12.8 21.333333 38.4 25.6 59.733333 17.066667 21.333333-12.8 25.6-38.4 17.066667-59.733333l-64-110.933333C712.533333 644.266667 695.466667 635.733333 682.666667 635.733333zM277.333333-64c-8.533333 0-12.8 0-21.333333 4.266667-21.333333 12.8-25.6 38.4-17.066667 59.733333l64 110.933333C315.733333 128 341.333333 136.533333 362.666667 123.733333c21.333333-12.8 25.6-38.4 17.066667-59.733333L315.733333-42.666667C307.2-55.466667 290.133333-64 277.333333-64zM217.6 512C209.066667 512 200.533333 512 196.266667 516.266667L85.333333 580.266667C64 593.066667 55.466667 618.666667 68.266667 640 81.066667 661.333333 106.666667 665.6 128 657.066667l110.933333-64C260.266667 580.266667 264.533333 554.666667 251.733333 533.333333 247.466667 520.533333 230.4 512 217.6 512zM917.333333 106.666667c-8.533333 0-12.8 0-21.333333 4.266667l-110.933333 64c-21.333333 12.8-25.6 38.4-17.066667 59.733333 12.8 21.333333 38.4 25.6 59.733333 17.066667l110.933333-64c21.333333-12.8 25.6-38.4 17.066667-59.733333C947.2 115.2 934.4 106.666667 917.333333 106.666667zM341.333333 635.733333c-12.8 0-29.866667 8.533333-38.4 21.333333L238.933333 768C230.4 789.333333 234.666667 814.933333 256 827.733333 277.333333 840.533333 302.933333 832 315.733333 810.666667l64-110.933333C388.266667 678.4 384 652.8 362.666667 644.266667 354.133333 640 349.866667 635.733333 341.333333 635.733333zM746.666667-64c-12.8 0-29.866667 8.533333-38.4 21.333333l-64 110.933333c-12.8 21.333333-4.266667 46.933333 17.066667 59.733333 21.333333 12.8 46.933333 4.266667 59.733333-17.066667l64-110.933333c12.8-21.333333 4.266667-46.933333-17.066667-59.733333C759.466667-64 755.2-64 746.666667-64z"  horiz-adv-x="1024" />
      
      <glyph glyph-name="redo" unicode="&#59703;" d="M597.333333 0c-4.266667 0-12.8 0-17.066667 4.266667C563.2 8.533333 554.666667 25.6 554.666667 42.666667l0 213.333333c0 25.6 17.066667 42.666667 42.666667 42.666667s42.666667-17.066667 42.666667-42.666667l0-119.466667 277.333333 247.466667L640 631.466667 640 512c0-25.6-17.066667-42.666667-42.666667-42.666667s-42.666667 17.066667-42.666667 42.666667L554.666667 725.333333c0 17.066667 8.533333 34.133333 25.6 38.4 17.066667 8.533333 34.133333 4.266667 46.933333-8.533333l384-341.333333c8.533333-8.533333 12.8-21.333333 12.8-29.866667s-4.266667-25.6-12.8-29.866667l-384-341.333333C618.666667 4.266667 605.866667 0 597.333333 0zM42.666667 0c-4.266667 0-4.266667 0-8.533333 0C12.8 4.266667 0 21.333333 0 42.666667 0 550.4 593.066667 554.666667 597.333333 554.666667c25.6 0 42.666667-17.066667 42.666667-42.666667 0-25.6-17.066667-42.666667-42.666667-42.666667-17.066667 0-405.333333-4.266667-494.933333-294.4C187.733333 234.666667 337.066667 298.666667 597.333333 298.666667c25.6 0 42.666667-17.066667 42.666667-42.666667s-17.066667-42.666667-42.666667-42.666667C166.4 213.333333 81.066667 29.866667 81.066667 25.6 76.8 8.533333 59.733333 0 42.666667 0z"  horiz-adv-x="1024" />
      
      <glyph glyph-name="undo" unicode="&#59750;" d="M426.666667 0c-8.533333 0-21.333333 4.266667-29.866667 12.8l-384 341.333333C4.266667 358.4 0 371.2 0 384s4.266667 25.6 12.8 29.866667l384 341.333333c12.8 12.8 29.866667 12.8 46.933333 8.533333C460.8 759.466667 469.333333 742.4 469.333333 725.333333l0-213.333333c0-25.6-17.066667-42.666667-42.666667-42.666667S384 486.4 384 512L384 631.466667 106.666667 384 384 136.533333 384 256c0 25.6 17.066667 42.666667 42.666667 42.666667s42.666667-17.066667 42.666667-42.666667l0-213.333333c0-17.066667-8.533333-34.133333-25.6-38.4C439.466667 0 430.933333 0 426.666667 0zM981.333333 0c-17.066667 0-34.133333 8.533333-38.4 25.6 0 0-85.333333 187.733333-516.266667 187.733333-25.6 0-42.666667 17.066667-42.666667 42.666667s17.066667 42.666667 42.666667 42.666667c260.266667 0 409.6-64 494.933333-123.733333C832 465.066667 443.733333 469.333333 426.666667 469.333333c-25.6 0-42.666667 17.066667-42.666667 42.666667 0 25.6 17.066667 42.666667 42.666667 42.666667 4.266667 0 597.333333-4.266667 597.333333-512 0-21.333333-12.8-38.4-34.133333-42.666667C985.6 0 985.6 0 981.333333 0z"  horiz-adv-x="1024" />
      
      <glyph glyph-name="758bianjiqi_fengexian" unicode="&#58962;" d="M0.568 407.014h1022.864v-85.24H0.568v85.24z"  horiz-adv-x="1024" />
      
      <glyph glyph-name="shurukuangsousuo" unicode="&#58913;" d="M1023.985778-67.640889L761.827556 194.545778c138.396444 168.704 128.867556 418.133333-28.657778 575.672889C649.301333 854.072889 539.392 896 429.482667 896 319.573333 896 209.649778 854.072889 125.795556 770.204444c-167.722667-167.722667-167.722667-439.651556 0-607.374222 83.868444-83.854222 193.777778-125.795556 303.687111-125.795555a428.131556 428.131556 0 0 1 271.985777 97.137777L963.626667-128l60.359111 60.359111zM429.482667 122.410667a341.802667 341.802667 0 0 0-243.313778 100.792889c-134.172444 134.172444-134.172444 352.469333 0 486.641777a341.845333 341.845333 0 0 0 243.313778 100.778667 341.802667 341.802667 0 0 0 243.313777-100.792889c134.172444-134.172444 134.172444-352.469333 0-486.641778a341.902222 341.902222 0 0 0-243.313777-100.778666z"  horiz-adv-x="1024" />
      
      <glyph glyph-name="psd" unicode="&#58892;" d="M145.6 894.4C100.8 894.4 64 859.2 64 814.4V-48c0-44.8 36.8-80 81.6-80h732.8c44.8 0 81.6 35.2 81.6 80V569.6L657.6 894.4h-512zM960 569.6v-16H755.2s-100.8 20.8-99.2 108.8c0 0 4.8-92.8 97.6-92.8H960zM657.6 896v-233.6c0-25.6 17.6-92.8 97.6-92.8H960L657.6 896zM304 112h-54.4v-67.2c0-6.4-4.8-11.2-11.2-11.2-6.4 0-12.8 4.8-12.8 11.2V209.6c0 9.6 8 17.6 17.6 17.6H304c38.4 0 59.2-25.6 59.2-57.6S340.8 112 304 112z m-3.2 94.4h-51.2v-73.6h51.2c22.4 0 38.4 16 38.4 36.8 0 22.4-16 36.8-38.4 36.8zM464 32c-28.8 0-51.2 9.6-67.2 24-1.6 1.6-3.2 4.8-3.2 8 0 6.4 4.8 12.8 11.2 12.8 1.6 0 4.8 0 6.4-3.2 12.8-11.2 32-20.8 54.4-20.8 33.6 0 44.8 19.2 44.8 33.6 0 49.6-113.6 22.4-113.6 91.2 0 32 28.8 52.8 65.6 52.8 25.6 0 46.4-8 62.4-20.8 1.6-1.6 3.2-4.8 3.2-8 0-6.4-4.8-11.2-11.2-11.2-1.6 0-4.8 0-6.4 1.6-14.4 12.8-32 17.6-49.6 17.6-22.4 0-40-12.8-40-30.4 0-43.2 115.2-19.2 115.2-91.2 0-27.2-19.2-56-72-56z m179.2 3.2h-48c-9.6 0-17.6 8-17.6 17.6v156.8c0 9.6 8 17.6 17.6 17.6h48c60.8 0 99.2-41.6 99.2-96s-38.4-96-99.2-96z m0 171.2h-41.6v-150.4h41.6c48 0 75.2 33.6 75.2 75.2s-27.2 75.2-75.2 75.2z"  horiz-adv-x="1024" />
      
      <glyph glyph-name="duoxuan" unicode="&#58928;" d="M397.714285 128C415.263245 128 432.812204 134.816422 446.201608 148.449274L811.915891 520.812908C838.694701 548.078604 838.694701 592.285032 811.915891 619.550728 785.137088 646.816424 741.720058 646.816424 714.941248 619.550728L397.714285 296.556001 309.058751 386.823455C282.279942 414.089151 238.862915 414.089151 212.084106 386.823455 185.305298 359.557759 185.305298 315.351332 212.084106 288.085636L349.226964 148.449274C362.616368 134.816422 380.165327 128 397.714285 128ZM0 768.380142C0 838.862643 57.24888 896 127.619858 896L896.380141 896C966.862643 896 1024 838.75112 1024 768.380142L1024-0.380141C1024-70.862643 966.751117-128 896.380141-128L127.619858-128C57.137357-128 0-70.751117 0-0.380141L0 768.380142Z"  horiz-adv-x="1024" />
      
      <glyph glyph-name="yinlemusic217" unicode="&#58924;" d="M665.94909125 311.47636406000004c-11.30181844 4.71272719-25.39636406 7.06909125-39.97090875 7.06909125-8.94545437 0-25.87636406-5.19272719-36.69818156-10.82181843-20.20363594-10.82181844-32.46545438-28.23272719-32.46545438-46.56 0-9.86181844 4.23272719-20.68363594 10.34181844-28.23272719 7.98545437-8.94545437 20.68363594-13.61454563 37.61454562-13.61454563 20.20363594 0 41.36727281 8.94545437 58.29818157 24 15.53454562 14.57454563 23.52 33.38181844 23.52 56.90181844L686.58909125 597.42545438 413.38181844 531.0981815600001l0-285.90545437c-9.42545437 4.23272719-22.56 6.58909125-37.13454563 6.58909125-8.94545437 0-18.32727281-1.87636406-28.66909125-6.10909125-25.87636406-10.34181844-41.84727281-29.62909125-41.84727281-50.79272719 0-9.86181844 4.23272719-20.68363594 10.34181844-28.23272719 7.98545437-8.94545437 21.16363594-13.61454563 38.09454562-13.61454562 27.75272719 0 62.09454563 20.20363594 72.87272719 43.72363593 3.75272719 8.46545438 7.06909125 24.91636406 7.06909125 36.69818157L434.10909125 462.45818156l231.84 57.86181844L665.94909125 311.47636406000004zM992 384c0 265.09090875-214.90909125 480-480 480S32 649.09090875 32 384c0-265.09090875 214.90909125-480 480-480S992 118.90909124999996 992 384zM75.63636406 384C75.63636406 625.00363594 270.99636406 820.36363594 512 820.36363594c241.00363594 0 436.36363594-195.36 436.36363594-436.36363594s-195.36-436.36363594-436.36363594-436.36363594C270.99636406-52.363635939999995 75.63636406 142.99636406000002 75.63636406 384z"  horiz-adv-x="1024" />
      
      <glyph glyph-name="tupian" unicode="&#59045;" d="M679.528 305.607 570.095 197.307c-0.098-0.098-0.287-0.189-0.379-0.287-8.595-8.594-8.595-22.569 0-31.254 8.59-8.588 22.563-8.588 31.254 0 0.568 0.568 0.752 1.322 1.32 1.891l66.004 66 31.158 31.252c0 0 21.433-20.11 21.908-19.828 8.211-3.868 18.22-2.643 24.924 4.16 8.594 8.588 8.594 22.561 0 31.248l0 0 0 0-15.578 15.584c0 0-2.929 3.301-4.532 4.91C713.332 313.726 693.784 315.237 679.528 305.607L679.528 305.607zM767.529 196.928 767.529 196.928l10.009-10.106 0 0 0 0c8.595-8.588 22.57-8.588 31.255 0 8.595 8.595 8.595 22.567 0 31.255l0 0 0 0-10.102 10.105-0.097-0.097c-0.093 0.097-0.188 0.282-0.28 0.379-8.594 8.592-22.569 8.592-31.254 0-8.595-8.594-8.595-22.569 0-31.255C767.247 197.117 767.34 197.02 767.529 196.928L767.529 196.928zM836.462 825.5 188.34 825.5c-65.15 0-117.84-52.688-117.84-117.84l0-648.122c0-65.053 52.781-117.839 117.84-117.839l648.122 0c65.053 0 117.839 52.786 117.839 117.839L954.301 707.66C954.301 772.812 901.515 825.5 836.462 825.5L836.462 825.5zM895.379 59.538c0-32.572-26.345-58.917-58.917-58.917L188.34 0.621c-32.579 0-58.918 26.345-58.918 58.917l0 69.873L286.16 279.45c5.289 4.44 8.687 4.723 13.976 0.097l120.39-98.483c10.386-7.272 21.719-16.336 30.593-16.336 8.876 0 19.453 3.019 30.878 14.445l218.777 218.782c1.136-0.097 2.268-0.379 3.495-0.379 0.379 0 0.756 0.093 1.135 0.093l189.976-203.954L895.38 59.538 895.379 59.538zM895.379 280.206 738.073 449.034c-5.666 13.029-18.604 22.191-33.805 22.191-13.597 0-25.307-7.363-31.633-18.318L457.354 237.625c-6.235-4.44-6.235-4.44-13.035 0l-122.183 99.993c-6.703 8.967-17.373 14.821-29.365 14.821-6.136 0-11.899-1.696-16.994-4.341l-5.762-3.687c-1.886-1.415-3.495-3.109-5.099-4.813L129.421 209.768 129.421 707.66c0 32.579 26.339 58.918 58.918 58.918l648.122 0c32.572 0 58.917-26.339 58.917-58.918L895.378 280.206 895.379 280.206zM335.641 678.2c-48.816 0-88.379-39.563-88.379-88.379 0-48.816 39.563-88.379 88.379-88.379 48.816 0 88.379 39.563 88.379 88.379C424.02 638.637 384.457 678.2 335.641 678.2L335.641 678.2zM335.641 560.36c-16.243 0-29.462 13.219-29.462 29.461 0 16.238 13.219 29.46 29.462 29.46 16.237 0 29.461-13.223 29.461-29.46C365.102 573.579 351.878 560.36 335.641 560.36L335.641 560.36zM335.641 560.36"  horiz-adv-x="1024" />
      
      <glyph glyph-name="qrcode-1-copy" unicode="&#58899;" d="M568.889 896v-455.111h455.109l0 455.111h-455.109zM967.109 497.778h-341.334l-0 341.334h341.334l0-341.334zM113.778 554.667h227.555l-0 227.555h-227.555v-227.555zM0.001-127.999h455.111v455.111h-455.111v-455.111zM56.89 270.222h341.334v-341.334h-341.334v341.334zM910.221 782.223h-227.555v-227.555h227.555v227.555zM0.001 440.889h455.111v455.111h-455.111v-455.111zM56.89 839.111h341.334v-341.334l-341.334-0v341.334zM910.221-127.999h113.778v227.555h-113.778v-227.555zM910.221 213.335h113.778v113.777h-113.778v-113.777zM113.778-14.221h227.555l-0 227.555h-227.555v-227.555zM739.554 327.112h-170.665v-170.667h170.665v-56.889h113.778l-0 113.778h-113.778v113.777zM568.889-127.999h227.553v113.778h-227.553v-113.778z"  horiz-adv-x="1024" />
      
      </font>
</defs>
</svg>
